<?xml version="1.0" encoding="UTF-8" standalone="no"?>
<!-- Created with Inkscape (http://www.inkscape.org/) -->

<svg
   width="1920"
   height="1080"
   viewBox="0 0 507.99999 285.75"
   version="1.1"
   id="svg1"
   xml:space="preserve"
   inkscape:version="1.4.3 (0d15f75042, 2025-12-25)"
   sodipodi:docname="ambxst wallpaper.svg"
   inkscape:export-filename="ambxst-wallpaper.png"
   inkscape:export-xdpi="192"
   inkscape:export-ydpi="192"
   xmlns:inkscape="http://www.inkscape.org/namespaces/inkscape"
   xmlns:sodipodi="http://sodipodi.sourceforge.net/DTD/sodipodi-0.dtd"
   xmlns="http://www.w3.org/2000/svg"
   xmlns:svg="http://www.w3.org/2000/svg"><sodipodi:namedview
     id="namedview1"
     pagecolor="#ffffff"
     bordercolor="#000000"
     borderopacity="0.25"
     inkscape:showpageshadow="2"
     inkscape:pageopacity="0.0"
     inkscape:pagecheckerboard="0"
     inkscape:deskcolor="#d1d1d1"
     inkscape:document-units="mm"
     inkscape:zoom="0.4525764"
     inkscape:cx="815.33195"
     inkscape:cy="441.91434"
     inkscape:window-width="1840"
     inkscape:window-height="1052"
     inkscape:window-x="0"
     inkscape:window-y="0"
     inkscape:window-maximized="1"
     inkscape:current-layer="g66" /><defs
     id="defs1"><linearGradient
       id="grad1_0"
       x1="43.8%"
       y1="0%"
       x2="100%"
       y2="100%"><stop
         offset="14.444444444444446%"
         stop-color="#86352e"
         stop-opacity="1"
         id="stop1" /><stop
         offset="85.55555555555554%"
         stop-color="#86352e"
         stop-opacity="1"
         id="stop2" /></linearGradient><linearGradient
       id="grad1_1"
       x1="43.8%"
       y1="0%"
       x2="100%"
       y2="100%"><stop
         offset="14.444444444444446%"
         stop-color="#86352e"
         stop-opacity="1"
         id="stop3" /><stop
         offset="85.55555555555554%"
         stop-color="#742d2c"
         stop-opacity="1"
         id="stop4" /></linearGradient><linearGradient
       id="grad1_2"
       x1="43.8%"
       y1="0%"
       x2="100%"
       y2="100%"><stop
         offset="14.444444444444446%"
         stop-color="#622629"
         stop-opacity="1"
         id="stop5" /><stop
         offset="85.55555555555554%"
         stop-color="#742d2c"
         stop-opacity="1"
         id="stop6" /></linearGradient><linearGradient
       id="grad1_3"
       x1="43.8%"
       y1="0%"
       x2="100%"
       y2="100%"><stop
         offset="14.444444444444446%"
         stop-color="#622629"
         stop-opacity="1"
         id="stop7" /><stop
         offset="85.55555555555554%"
         stop-color="#502025"
         stop-opacity="1"
         id="stop8" /></linearGradient><linearGradient
       id="grad1_4"
       x1="43.8%"
       y1="0%"
       x2="100%"
       y2="100%"><stop
         offset="14.444444444444446%"
         stop-color="#3f1a20"
         stop-opacity="1"
         id="stop9" /><stop
         offset="85.55555555555554%"
         stop-color="#502025"
         stop-opacity="1"
         id="stop10" /></linearGradient><linearGradient
       id="grad1_5"
       x1="43.8%"
       y1="0%"
       x2="100%"
       y2="100%"><stop
         offset="14.444444444444446%"
         stop-color="#3f1a20"
         stop-opacity="1"
         id="stop11" /><stop
         offset="85.55555555555554%"
         stop-color="#2d141a"
         stop-opacity="1"
         id="stop12" /></linearGradient><linearGradient
       id="grad1_6"
       x1="43.8%"
       y1="0%"
       x2="100%"
       y2="100%"><stop
         offset="14.444444444444446%"
         stop-color="#1e0d11"
         stop-opacity="1"
         id="stop13" /><stop
         offset="85.55555555555554%"
         stop-color="#2d141a"
         stop-opacity="1"
         id="stop14" /></linearGradient><linearGradient
       id="grad1_7"
       x1="43.8%"
       y1="0%"
       x2="100%"
       y2="100%"><stop
         offset="14.444444444444446%"
         stop-color="#1e0d11"
         stop-opacity="1"
         id="stop15" /><stop
         offset="85.55555555555554%"
         stop-color="#0b0003"
         stop-opacity="1"
         id="stop16" /></linearGradient><linearGradient
       id="grad2_0"
       x1="0%"
       y1="0%"
       x2="56.3%"
       y2="100%"><stop
         offset="14.444444444444446%"
         stop-color="#86352e"
         stop-opacity="1"
         id="stop17" /><stop
         offset="85.55555555555554%"
         stop-color="#86352e"
         stop-opacity="1"
         id="stop18" /></linearGradient><linearGradient
       id="grad2_1"
       x1="0%"
       y1="0%"
       x2="56.3%"
       y2="100%"><stop
         offset="14.444444444444446%"
         stop-color="#742d2c"
         stop-opacity="1"
         id="stop19" /><stop
         offset="85.55555555555554%"
         stop-color="#86352e"
         stop-opacity="1"
         id="stop20" /></linearGradient><linearGradient
       id="grad2_2"
       x1="0%"
       y1="0%"
       x2="56.3%"
       y2="100%"><stop
         offset="14.444444444444446%"
         stop-color="#742d2c"
         stop-opacity="1"
         id="stop21" /><stop
         offset="85.55555555555554%"
         stop-color="#622629"
         stop-opacity="1"
         id="stop22" /></linearGradient><linearGradient
       id="grad2_3"
       x1="0%"
       y1="0%"
       x2="56.3%"
       y2="100%"><stop
         offset="14.444444444444446%"
         stop-color="#502025"
         stop-opacity="1"
         id="stop23" /><stop
         offset="85.55555555555554%"
         stop-color="#622629"
         stop-opacity="1"
         id="stop24" /></linearGradient><linearGradient
       id="grad2_4"
       x1="0%"
       y1="0%"
       x2="56.3%"
       y2="100%"><stop
         offset="14.444444444444446%"
         stop-color="#502025"
         stop-opacity="1"
         id="stop25" /><stop
         offset="85.55555555555554%"
         stop-color="#3f1a20"
         stop-opacity="1"
         id="stop26" /></linearGradient><linearGradient
       id="grad2_5"
       x1="0%"
       y1="0%"
       x2="56.3%"
       y2="100%"><stop
         offset="14.444444444444446%"
         stop-color="#2d141a"
         stop-opacity="1"
         id="stop27" /><stop
         offset="85.55555555555554%"
         stop-color="#3f1a20"
         stop-opacity="1"
         id="stop28" /></linearGradient><linearGradient
       id="grad2_6"
       x1="0%"
       y1="0%"
       x2="56.3%"
       y2="100%"><stop
         offset="14.444444444444446%"
         stop-color="#2d141a"
         stop-opacity="1"
         id="stop29" /><stop
         offset="85.55555555555554%"
         stop-color="#1e0d11"
         stop-opacity="1"
         id="stop30" /></linearGradient><linearGradient
       id="grad2_7"
       x1="0%"
       y1="0%"
       x2="56.3%"
       y2="100%"><stop
         offset="14.444444444444446%"
         stop-color="#0b0003"
         stop-opacity="1"
         id="stop31" /><stop
         offset="85.55555555555554%"
         stop-color="#1e0d11"
         stop-opacity="1"
         id="stop32" /></linearGradient><clipPath
       clipPathUnits="userSpaceOnUse"
       id="clipPath46"><rect
         style="display:inline;fill:#ffffff;stroke:none;stroke-width:1.86622;stroke-linecap:square;stroke-dasharray:none"
         id="rect46"
         width="474.02896"
         height="266.63214"
         x="13.572922"
         y="7.6465373" /></clipPath></defs><g
     inkscape:label="Capa 1"
     inkscape:groupmode="layer"
     id="layer1"><g
       id="g61"
       inkscape:label="mono"><g
         id="g27"
         transform="matrix(1.0716645,0,0,1.0717013,-14.545619,-8.1948041)"
         style="stroke-width:0.933112"><g
           id="g30"
           clip-path="url(#clipPath46)"><path
             style="fill:#5c5c5c;stroke:#5c5c5c;stroke-width:1.86623;stroke-dasharray:none"
             d="m 195.08646,281.34866 c 13.42444,-16.90387 23.38035,-21.31071 55.93659,-24.75944 7.69112,-0.81474 13.65304,-1.81475 18.72926,-3.14154 1.91695,-0.50103 6.28609,-1.47668 9.7092,-2.16811 19.41709,-3.92202 27.42506,-8.57015 47.55011,-27.59986 21.47157,-20.30295 31.28047,-24.2788 59.49988,-24.11714 39.90491,0.2286 55.92102,-6.84034 72.21946,-31.87506 14.01985,-21.53477 25.87965,-26.7 45.19836,-19.68499 l 4.32047,1.56884 0.13071,17.40172 c 0.12366,16.4641 0.0836,17.38217 -0.74687,17.0388 -10.79557,-4.46434 -25.94701,1.53115 -38.84899,15.37273 -13.00912,13.95649 -17.08433,17.74531 -24.01803,22.33007 -13.70806,9.06411 -26.37727,11.53371 -41.32629,8.05573 -13.52075,-3.14576 -14.95518,-3.36622 -21.9079,-3.36736 -15.54601,-0.001 -24.04932,4.78493 -34.55653,19.45582 -12.15207,16.96758 -21.34663,24.18843 -35.771,28.09242 -19.00743,5.1444 -29.07038,8.6282 -32.68188,11.31454 -1.13149,0.8416 -3.21539,0.88323 -44.21817,0.88323 H 191.27417 Z M -1.3580405,150.8505 c 0,-15.78463 0.019799,-16.10591 0.96307761,-15.61866 2.25638119,1.16554 11.08415389,0.15381 17.39342089,-1.99328 9.003903,-3.06418 13.733254,-6.25618 21.973968,-14.83086 C 67.146434,89.091793 73.362234,86.090646 106.18987,85.953171 l 16.67988,-0.06981 7.97214,-1.69408 c 18.15881,-3.858746 27.4115,-8.950449 42.31647,-23.286565 21.41488,-20.597563 30.5074,-25.030605 57.01036,-27.795264 20.89656,-2.179832 33.01418,-7.211801 46.96114,-19.501092 3.85998,-3.401198 10.52126,-11.2007998 11.34078,-13.2787969 l 0.42645,-1.08129209 h 31.68269 c 29.9751,0 31.66387,0.045333 31.33345,0.84100481 -0.19211,0.46255283 -0.90116,2.46294288 -1.5757,4.44531158 -6.77737,19.9172866 -26.72132,42.0931376 -44.2507,49.2027236 -15.05934,6.107777 -27.56553,6.371828 -49.52905,1.045741 C 216.94097,45.17409 202.30989,48.37931 180.5699,71.427671 160.12124,93.106998 155.03357,94.942545 122.75507,92.286332 79.186432,88.701041 70.898163,90.939759 59.236398,109.44313 c -3.833884,6.08312 -11.118185,18.67591 -13.815331,23.88333 -4.463992,8.61872 -9.507829,14.73666 -16.103823,19.53318 -4.161227,3.02597 -27.9415007,14.10703 -30.27413614,14.10703 -0.22062766,0 -0.40114836,-7.25227 -0.40114836,-16.11615 z M 7.6042853,94.107078 C 6.6458145,94.005097 4.2371795,93.661923 2.2517852,93.344347 L -1.3580405,92.766938 V 46.006589 -0.75375338 H 60.382427 c 33.957255,0 61.725393,0.16218435 61.706983,0.36043066 C 121.83433,2.3524493 108.33287,10.347778 97.945235,13.904445 77.805113,20.800309 72.410311,26.52776 69.152195,44.472819 63.790679,74.003012 35.219598,97.043651 7.6042853,94.107078 Z"
             id="path30" /><path
             style="display:inline;fill:#454545;stroke:#454545;stroke-width:1.86623;stroke-dasharray:none"
             d="m 359.2883,283.69567 c 10.60424,-16.45562 19.95799,-20.63675 47.6897,-21.31727 23.31363,-0.57213 32.99988,-5.19163 48.0399,-22.91089 16.57908,-19.53247 32.16611,-25.97512 48.50177,-20.04743 l 4.73012,1.71643 0.128,32.50626 0.12799,32.50629 h -75.39919 -75.3992 z m -167.18617,0.65123 c 7.33117,-10.95146 22.16724,-22.12029 32.58961,-24.53396 4.04365,-0.93644 14.70075,-2.49668 23.73735,-3.47525 12.24359,-1.32584 19.96335,-2.83621 38.50102,-7.53266 12.90212,-3.26869 22.74975,-9.67476 40.08151,-26.07365 21.98403,-20.80076 29.0112,-23.48464 62.98523,-24.05591 28.37172,-0.47707 30.22032,-0.94086 39.73334,-9.96842 7.06797,-6.70732 16.19069,-18.72854 20.52063,-27.04056 1.16547,-2.23732 2.84299,-4.9336 3.7278,-5.99175 0.88477,-1.05812 1.8254,-2.57266 2.09025,-3.3656 0.58561,-1.75325 1.73717,-1.87733 2.23005,-0.24029 0.19896,0.66079 0.9685,3.14224 1.71006,5.51433 l 1.34833,4.31288 1.53832,-1.88665 c 9.80801,-12.0288 19.54619,-16.92243 30.96657,-15.56126 4.29754,0.51222 13.64071,3.49998 13.64071,4.36203 0,0.51897 0.0294,0.52581 -3.79949,-0.88492 -18.92892,-6.97423 -31.02725,-1.65786 -44.97246,19.76225 -16.29844,25.03472 -32.31455,32.10366 -72.21946,31.87506 -28.21941,-0.16158 -38.02831,3.81419 -59.49988,24.11714 -20.12505,19.02971 -28.13302,23.67784 -47.55011,27.59986 -3.42311,0.69143 -7.79225,1.66708 -9.7092,2.16811 -5.07622,1.32679 -11.03814,2.3268 -18.72926,3.14154 -32.41906,3.43421 -42.65697,7.94087 -55.75739,24.54391 -3.45996,4.38504 -4.98412,5.93343 -3.16353,3.21377 z M 81.128545,253.6302 c -0.974232,-0.94033 -0.265048,-10.33572 1.372497,-18.18335 3.681318,-17.64182 3.447438,-20.85277 -1.863034,-25.57738 -6.251986,-5.56229 -14.233456,-3.80912 -27.973139,6.14447 -6.290017,4.55673 -15.662764,9.16478 -25.891165,12.72922 -3.560035,1.24062 -7.680294,2.67461 -9.156117,3.18665 -8.3087551,2.88273 -16.4929142,8.32613 -18.21461392,12.11484 -0.59858608,1.3172 -0.68464168,0.0453 -0.72039688,-10.64777 l -0.040577,-12.14366 1.36924417,0.36959 c 2.77798783,0.74983 21.00744063,0.38293 25.76668563,-0.51862 18.962592,-3.59207 30.028047,-10.44662 44.338343,-27.46566 19.760302,-23.50067 34.163978,-29.55349 70.330938,-29.55493 29.85815,-10e-4 30.24129,8.57878 1.0941,24.5004 -19.29591,10.54036 -24.36014,13.95006 -31.72682,21.36142 -11.109843,11.17731 -15.076442,20.17715 -15.076442,34.20719 0,4.772 -0.04548,4.98293 -1.120292,5.19584 -4.932238,0.97699 -6.547299,1.50438 -9.033541,2.94994 -3.157985,1.83613 -2.997283,1.77419 -3.455631,1.33181 z M 202.10509,252.84 c -0.65561,-2.52124 0.63477,-4.75554 5.33634,-9.23975 6.89166,-6.57306 8.79281,-7.35984 41.13054,-17.02163 19.83063,-5.92497 25.68365,-8.49209 38.23929,-16.77157 9.23129,-6.08736 9.22461,-5.79001 -0.0856,3.81885 -22.70825,23.43633 -49.70567,37.29355 -77.56468,39.81236 -7.20238,0.65119 -6.72022,0.69208 -7.05575,-0.59826 z m -203.4613271,-69.30418 0.00178,-16.32889 4.3549023,-1.63069 C 27.028712,156.57879 37.50144,148.61702 45.421063,133.32645 48.118209,128.11902 55.40251,115.52623 59.236394,109.44312 70.898159,90.939735 79.186428,88.701016 122.75507,92.286307 c 32.2785,2.656215 37.36617,0.820666 57.81483,-20.858661 21.73999,-23.048361 36.37107,-26.253581 75.98788,-16.646617 21.96352,5.326085 34.46971,5.062034 49.52905,-1.045742 17.68426,-7.172406 37.67012,-29.507272 44.35049,-49.5631548 0.72632,-2.1806054 1.5354,-3.96473718 1.79793,-3.96473718 0.26255,0 0.34964,-0.19947234 0.19348,-0.44327103 -0.16916,-0.2641985 3.65604,-0.46519772 9.46887,-0.49754945 l 9.75272,-0.0542823 -0.26943,2.53998996 c -0.14819,1.3969951 -0.40629,4.1619278 -0.5736,6.1442965 -3.52237,41.7375053 -34.33368,66.3130063 -91.59478,73.0571263 -25.58923,3.013862 -39.14346,9.058824 -51.83408,23.117125 -8.8962,9.85498 -15.69053,14.79102 -28.57823,20.76197 -24.61008,11.40195 -36.04512,12.03563 -62.44878,3.46048 -21.78818,-7.07618 -31.0188,-7.05801 -46.053217,0.0906 -8.690907,4.13242 -22.956531,15.66921 -24.986188,20.20664 -0.868672,1.94201 -1.239632,2.19589 -7.144495,4.8896 -19.787156,9.02665 -43.305244,27.0849 -57.91895182,44.47283 L -1.3580835,199.8646 Z M 76.516181,127.3697 c 0.914346,-0.36876 3.768921,-1.9643 6.343491,-3.54569 21.657028,-13.30249 33.009898,-15.09463 57.258258,-9.03877 26.57621,6.63726 33.1498,4.47617 58.2378,-19.145792 29.38992,-27.672485 46.21117,-34.708697 74.84686,-31.307935 23.53188,2.794634 38.99521,-1.462648 54.78174,-15.08224 14.3881,-12.41307 21.20883,-24.497682 24.19212,-42.8622234 0.83794,-5.1581713 0.40504,-5.5452341 -1.2274,-1.0974914 C 336.06294,45.847851 301.34109,65.669762 261.03894,56.6172 225.07886,48.539951 223.8399,48.842708 199.29847,71.704336 c -24.59276,22.909446 -32.28838,26.525143 -50.03964,23.510522 -2.46465,-0.418554 -7.39393,-0.880813 -10.95395,-1.027217 -6.16159,-0.253419 -19.35964,-1.375787 -23.21169,-1.973931 -9.6306,-1.495456 -30.903439,6.523512 -39.524835,14.89922 -12.068992,11.72506 -11.436101,25.25098 0.947826,20.25677 z m 243.587099,51.97173 c 10.34642,-16.79439 25.9187,-25.99867 52.22564,-30.86888 24.70918,-4.57444 32.50134,-7.16314 42.55692,-14.13807 6.16394,-4.27553 8.10051,-6.07243 15.0705,-13.98352 11.4405,-12.98527 15.7873,-16.78319 23.50728,-20.539012 6.29815,-3.064097 9.31529,-3.852332 20.43058,-5.337609 3.65593,-0.48852 2.93678,-0.90189 -4.73011,-2.71882 -23.22598,-5.504203 -34.06111,-2.181334 -66.05372,20.257091 -15.65539,10.9801 -22.45741,13.42945 -43.86404,15.795 -20.04347,2.21494 -24.17757,4.07512 -34.25569,15.41385 -6.15529,6.92518 -7.65591,7.87911 -11.34431,7.21123 -3.78395,-0.68514 -4.57073,-4.06668 -2.57794,-11.07962 0.67903,-2.38952 1.46215,-5.22887 1.74027,-6.30963 0.50279,-1.95371 3.88174,-6.21598 7.1391,-9.00537 2.00314,-1.71536 5.76085,-3.57051 12.89988,-6.36856 25.59273,-10.03073 32.96407,-18.124433 46.79715,-51.383157 6.09859,-14.662813 9.89798,-21.215309 15.73339,-27.134285 l 2.83811,-2.878708 2.42976,0.705794 c 3.68692,1.070977 10.03907,2.042536 20.47973,3.132367 23.07508,2.408657 32.43735,7.038443 40.78264,20.167654 12.48865,19.647747 25.19775,24.831005 45.47004,18.544452 l 1.12029,-0.347396 -8.6e-4,12.166871 -8.1e-4,12.166898 -10.0818,0.0152 c -28.84689,0.0452 -42.1322,8.49444 -57.76729,36.73906 -13.81792,24.96192 -25.35817,30.29512 -59.86241,27.6647 -30.18987,-2.30152 -40.74346,-0.48699 -55.83838,9.60053 -4.76738,3.18593 -5.49046,3.56079 -4.84392,2.51136 z m 83.49459,-75.79667 c 3.46556,-1.278 7.50691,-4.196168 15.52655,-11.211304 3.28618,-2.87459 7.41475,-6.23475 9.1746,-7.467044 12.38167,-8.670013 14.7048,-19.773076 5.73221,-27.396136 -13.03149,-11.071438 -32.59166,-0.925124 -39.537,20.50875 -1.14173,3.523499 -3.2929,8.799769 -4.78036,11.725028 -6.05479,11.907566 0.74493,18.686076 13.884,13.840706 z"
             id="path29" /><path
             style="display:inline;fill:#2e2e2e;stroke:#2e2e2e;stroke-width:1.86623;stroke-dasharray:none"
             d="m 61.613982,285.25413 c 0.0982,-0.49221 0.868513,-2.21413 1.71178,-3.82649 0.843266,-1.61234 2.209394,-4.57449 3.035841,-6.58252 2.971093,-7.21894 5.918781,-11.93103 10.470652,-16.73812 l 2.5761,-2.72056 0.134869,-7.08555 c 0.104677,-5.49796 0.415536,-8.26997 1.387768,-12.37184 6.621868,-27.93791 -3.584578,-36.25937 -25.174294,-20.52488 -10.016577,7.30007 -15.381544,9.90035 -33.962002,16.4608 -12.1401869,4.28647 -17.2061758,7.12708 -20.5595009,11.52816 -1.47541199,1.93642 -2.18794837,2.11273 -1.73161857,0.42847 0.8155874,-3.0103 10.11895997,-9.11791 18.11407247,-11.89179 1.475824,-0.51204 5.596082,-1.94603 9.156117,-3.18665 10.228402,-3.56444 19.601148,-8.17249 25.891163,-12.72922 13.739685,-9.95359 21.721153,-11.70676 27.973141,-6.14447 5.310471,4.72461 5.54435,7.93556 1.863035,25.57738 -3.110705,14.90734 -2.541364,19.54033 2.071684,16.85819 2.496317,-1.45139 4.111418,-1.97933 9.044991,-2.95659 1.074812,-0.21291 1.12029,-0.42384 1.12029,-5.19584 0,-14.03004 3.966597,-23.02988 15.07644,-34.20719 7.36668,-7.41136 12.43091,-10.82106 31.72681,-21.36142 29.14721,-15.92162 28.76406,-24.50159 -1.09409,-24.5004 -36.16694,0.001 -50.570633,6.05426 -70.330935,29.55493 -14.308436,17.01684 -25.30481,23.83085 -44.338343,27.47468 -5.649402,1.08155 -24.7556415,1.27289 -26.38907054,0.2643 -0.83848316,-0.51774 -0.44513666,-0.56341 2.48953504,-0.28909 28.9121465,2.70263 48.5709645,-5.58103 68.0687075,-28.6822 16.80042,-19.90534 30.274776,-26.8517 55.857946,-28.79617 42.74327,-3.24871 50.16867,7.12438 17.72787,24.76544 -36.20392,19.68746 -47.290995,32.31941 -47.905872,54.58127 -0.184459,6.67852 -1.547803,6.54111 19.774142,1.99302 9.09605,-1.94022 9.7886,-1.98002 14.14906,-0.81298 8.26548,2.2122 17.73639,-1.58569 22.86487,-9.16888 4.00825,-5.92683 5.45329,-7.54195 13.76997,-15.39102 10.45296,-9.8652 12.12499,-12.8275 9.70264,-17.18977 l -1.00496,-1.80981 1.3784,-1.23802 c 0.7581,-0.6809 3.50695,-2.4527 6.1085,-3.93727 16.77567,-9.57309 30.49004,-10.65623 52.59416,-4.15383 33.64656,9.89788 60.23304,-1.72772 69.81645,-30.52902 2.77083,-8.32724 4.05778,-12.85954 4.05778,-14.29055 0,-0.77806 0.47296,-3.12524 1.05104,-5.21596 0.5781,-2.09073 1.22136,-5.8558 1.42952,-8.36679 1.10451,-13.32433 6.09397,-19.59111 21.66791,-27.21482 36.10667,-17.674821 42.27117,-28.663832 34.26733,-61.086186 -2.60448,-10.550399 -2.72417,-10.77046 -4.13234,-7.599678 -10.38551,23.385027 -40.0881,39.247097 -83.75199,44.726098 -29.18207,3.661806 -38.32254,8.260559 -56.48275,28.417606 -23.49198,26.07509 -30.57173,31.93849 -45.14448,37.38842 -16.31321,6.10082 -33.1313,6.11077 -63.53986,0.0377 -13.20932,-2.63816 -27.892897,-2.62553 -38.384856,0.0328 -6.54236,1.65775 -5.385647,1.20934 -19.418372,7.52748 -16.309179,7.34308 -33.159763,20.05033 -51.7742508,39.04364 -3.3675763,3.43611 -5.61733179,5.53017 -4.99947621,4.65348 0.6178359,-0.8767 3.68800091,-4.22871 6.82256081,-7.4489 C 23.249564,174.063 40.140609,161.70374 58.167625,153.48006 c 5.904864,-2.6937 6.275824,-2.94759 7.144494,-4.88959 2.029657,-4.53744 16.295281,-16.07424 24.98619,-20.20665 15.034411,-7.14869 24.265031,-7.16687 46.053211,-0.0906 26.40366,8.57515 37.8387,7.94149 62.44878,-3.46047 12.88769,-5.97095 19.68202,-10.90699 28.57822,-20.76197 12.69064,-14.058301 26.24486,-20.103262 51.83408,-23.117126 57.2611,-6.74412 88.07242,-31.319616 91.5948,-73.0571217 0.16741,-1.9823685 0.42444,-4.7396631 0.57139,-6.1273212 l 0.26723,-2.52301464 h 7.18382 c 8.27654,0 7.69874,-0.48439606 6.4115,5.37504284 -4.87812,22.2049577 4.8744,31.8557977 34.63,34.2689057 22.06531,1.789443 33.60572,6.905121 41.20436,18.265248 5.98849,8.952909 7.88211,11.402872 11.21174,14.505868 8.40268,7.830768 18.43545,10.177803 30.6099,7.160801 3.43968,-0.852414 4.60564,-0.986577 4.60564,-0.529956 0,0.854969 -7.8201,2.694149 -12.69662,2.986088 C 481.59592,82.068991 471.77353,75.799238 461.90848,60.279075 453.56319,47.149894 444.20093,42.520108 421.12584,40.11145 410.68518,39.021617 404.33302,38.05006 400.6461,36.979082 l -2.42976,-0.705792 -2.83809,2.878707 c -5.83543,5.918978 -9.63481,12.471473 -15.73341,27.134286 -13.83307,33.258723 -21.20442,41.352427 -46.79715,51.383157 -7.13901,2.79805 -10.89672,4.6532 -12.89986,6.36856 -3.25737,2.78939 -6.63631,7.05167 -7.13912,9.00538 -0.27811,1.08076 -1.06123,3.92009 -1.74026,6.30961 -1.99279,7.01295 -1.206,10.39448 2.57793,11.07964 3.6884,0.66786 5.18903,-0.28605 11.34431,-7.21123 10.07814,-11.33875 14.21224,-13.19892 34.25569,-15.41385 21.40665,-2.36556 28.20866,-4.81491 43.86404,-15.79501 31.99261,-22.438426 42.82776,-25.761294 66.05373,-20.257091 7.66689,1.81693 8.38605,2.230299 4.7301,2.71882 -11.11529,1.485277 -14.13243,2.273513 -20.43058,5.337609 -7.71998,3.755822 -12.06676,7.553732 -23.50728,20.539012 -6.96998,7.91109 -8.90654,9.70799 -15.0705,13.98353 -10.05558,6.97493 -17.84773,9.56362 -42.55691,14.13806 -24.7843,4.58835 -38.75713,12.23215 -49.5674,27.11572 -3.68193,5.06927 -3.60784,5.11348 2.13652,1.27468 15.14929,-10.12389 25.66872,-11.93714 55.88753,-9.6334 34.50426,2.63043 46.04449,-2.70277 59.86241,-27.66469 12.93644,-23.36955 23.44495,-32.13641 42.95541,-35.83606 5.24121,-0.99386 23.89953,-1.56738 23.89953,-0.73464 0,0.3734 -2.48475,0.53669 -8.16599,0.53669 -28.91297,0 -42.25141,8.40839 -57.93843,36.52364 -14.56096,26.09703 -25.2558,30.76582 -63.84933,27.87331 -29.20112,-2.1886 -37.9173,-0.16404 -58.00616,13.47301 -5.04796,3.42676 -18.99182,17.05103 -22.93884,22.41311 -19.3321,26.26288 -57.36211,48.18941 -87.34755,50.36102 -2.32772,0.16857 -4.82065,0.41462 -5.53987,0.54677 -1.60216,0.29438 -2.92456,-0.84337 -2.92456,-2.51623 0,-1.84482 -4.42085,-6.05163 -7.97939,-7.59298 -7.66135,-3.31854 -10.61084,-2.90676 -28.46354,3.97379 -7.23412,2.78811 -12.75819,4.29409 -22.31009,6.08226 -21.25051,3.97821 -25.40929,4.99546 -32.41826,7.92959 -10.044853,4.20502 -18.367387,10.95134 -23.845227,19.32909 l -2.738487,4.18822 -10.800897,0.0171 c -10.271409,0.0151 -10.792133,-0.0271 -10.622316,-0.87813 z M 209.16083,253.43826 c 27.85901,-2.51881 54.85645,-16.37603 77.56469,-39.81236 9.31035,-9.60886 9.31703,-9.90621 0.0856,-3.81885 -12.55563,8.27948 -18.40866,10.8466 -38.23928,16.77157 -32.33775,9.66179 -34.23889,10.44857 -41.13055,17.02163 -4.70156,4.48421 -5.99195,6.71851 -5.33634,9.23975 0.33553,1.29034 -0.14663,1.24945 7.05575,0.59826 z m -17.82886,31.49186 c 0,-1.84291 10.15526,-12.73819 15.61803,-16.75615 10.30193,-7.57722 19.30944,-10.2129 42.88604,-12.54885 20.7522,-2.05609 30.80784,-5.28924 46.74831,-15.03069 10.66968,-6.52042 13.5322,-9.11152 23.47078,-21.24519 15.1774,-18.52959 21.62615,-21.60302 53.38236,-25.44164 29.29761,-3.54144 36.72124,-6.70965 64.85634,-27.67911 2.32772,-1.73486 6.35461,-4.7114 8.94865,-6.61452 6.05837,-4.44477 6.1265,-4.52367 8.69816,-10.07003 9.23669,-19.92112 27.13738,-31.25344 47.27566,-29.9286 l 5.28245,0.34752 v 14.61128 c 0,9.42046 -0.17683,14.61126 -0.49792,14.61126 -0.27385,0 -0.49792,-0.16876 -0.49792,-0.37522 0,-0.86205 -9.34317,-3.84981 -13.64071,-4.36203 -11.42038,-1.36117 -21.15856,3.53246 -30.96657,15.56126 l -1.53832,1.88665 -1.34833,-4.31288 c -0.74156,-2.37209 -1.5111,-4.85354 -1.71006,-5.51433 -0.49288,-1.63704 -1.64444,-1.51296 -2.23005,0.24029 -0.26485,0.79294 -1.20548,2.30748 -2.09025,3.3656 -0.88481,1.05815 -2.56233,3.75443 -3.7278,5.99175 -4.32994,8.31202 -13.45266,20.33324 -20.52063,27.04056 -9.51302,9.02756 -11.36162,9.49135 -39.73334,9.96842 -33.97403,0.57127 -41.0012,3.25515 -62.98523,24.05591 -17.33176,16.39889 -27.17939,22.80496 -40.08151,26.07365 -18.53767,4.69645 -26.25743,6.20682 -38.50102,7.53266 -9.0366,0.97857 -19.6937,2.53881 -23.73735,3.47525 -9.45863,2.19048 -22.68605,11.61141 -30.45672,21.69212 -1.59668,2.07136 -2.90305,3.61262 -2.90305,3.42506 z M 68.722348,127.52107 c -14.584655,-8.19908 25.312553,-38.577326 46.370842,-35.30736 3.85205,0.598144 17.0501,1.720512 23.21169,1.973931 3.56002,0.146442 8.4893,0.608663 10.95395,1.027217 17.75126,3.014621 25.44688,-0.601076 50.03964,-23.510522 24.54143,-22.861628 25.78039,-23.164385 61.74047,-15.087136 40.30215,9.052562 75.024,-10.769349 89.91011,-51.3276418 1.63244,-4.4477427 2.06534,-4.0606799 1.2274,1.0974914 -2.98329,18.3645414 -9.80402,30.4491534 -24.19212,42.8622234 -15.78653,13.619592 -31.24986,17.876874 -54.78174,15.08224 -28.63569,-3.400762 -45.45694,3.63545 -74.84686,31.307935 -25.088,23.621962 -31.66159,25.783052 -58.2378,19.145792 -24.24836,-6.05586 -35.60123,-4.26372 -57.258258,9.03877 -6.828559,4.19433 -11.21314,5.34094 -14.137324,3.69706 z M 391.49459,103.92601 c -5.3481,-2.66864 -5.80401,-6.309644 -1.78072,-14.221956 1.48746,-2.925259 3.63863,-8.201529 4.78036,-11.725028 6.94534,-21.433874 26.50551,-31.580188 39.537,-20.50875 8.97259,7.62306 6.64946,18.726123 -5.73221,27.396136 -1.75985,1.232294 -5.88842,4.592454 -9.1746,7.467044 -13.52086,11.827314 -20.92973,14.935804 -27.62983,11.592554 z m -371.717283,-0.8887 c -8.511504,-1.02552 -21.1353475,-6.485319 -21.1353475,-9.141022 0,-1.00845 0.50841396,-1.207225 1.2696628,-0.496373 C 1.5022,94.885154 14.385838,95.360582 20.29666,94.152128 45.594315,88.980127 64.82703,70.783373 69.337225,47.75309 71.462778,36.899506 71.938827,35.199006 73.922771,31.373191 78.025799,23.460947 83.742654,19.563383 98.599433,14.549438 108.56354,11.1867 115.34479,7.2959139 120.36699,2.0601826 l 2.70334,-2.81828952 53.10773,0.12231937 53.10773,0.12231938 -2.84905,3.60430657 C 216.88485,15.174896 202.41373,26.244929 190.95462,30.233768 177.21019,35.018118 169.90987,34.940611 145.02661,29.746156 113.06435,23.073941 99.062854,26.87512 86.45664,45.646936 83.356816,50.262876 83.108509,50.720481 75.38803,66.046067 69.07457,78.578647 64.749462,84.95424 59.620315,89.289095 45.363865,101.33781 35.091398,104.88242 19.777307,103.03731 Z"
             id="path28" /><path
             style="display:inline;fill:#171717;stroke:#171717;stroke-width:1.86623;stroke-dasharray:none"
             d="m -1.3503563,265.96494 c 0.00392,-12.04645 0.1986924,-20.22929 0.49022278,-20.6647 0.26545898,-0.39647 0.48608655,-0.51606 0.49028165,-0.26574 0.003914,0.25028 0.69191428,-0.44301 1.52826077,-1.54066 3.4333236,-4.50609 8.417098,-7.31454 20.6362251,-11.62887 18.580458,-6.56045 23.945427,-9.16073 33.962002,-16.4608 21.589717,-15.73449 31.796163,-7.41303 25.174295,20.52488 -0.972232,4.10187 -1.28317,6.87388 -1.387769,12.37184 l -0.13487,7.08555 -2.576098,2.72056 c -4.550166,4.80528 -7.499736,9.51964 -10.46734,16.7301 -0.824643,2.00362 -2.286235,5.15112 -3.248,6.99444 -0.961764,1.84334 -1.802423,3.5148 -1.86815,3.71437 -0.06567,0.19958 -14.179098,0.36287 -31.363084,0.36287 H -1.3579817 Z m 84.6365043,19.75709 c -1.57e-4,-2.65021 12.13264,-15.4339 17.973722,-18.93795 9.30005,-5.57906 15.1547,-7.31847 40.7793,-12.11554 9.5519,-1.78815 15.07596,-3.29413 22.31009,-6.08224 17.85271,-6.88056 20.80218,-7.29234 28.46353,-3.97379 3.55854,1.54136 7.97941,5.74814 7.97941,7.59296 0,1.67288 1.32239,2.81063 2.92456,2.51625 0.71921,-0.13226 3.21215,-0.37821 5.53985,-0.54677 29.98545,-2.17163 68.01545,-24.09816 87.34755,-50.36103 3.94704,-5.36208 17.89088,-18.98635 22.93884,-22.41311 20.08888,-13.63711 28.80506,-15.66161 58.00618,-13.47301 38.59353,2.89253 49.28837,-1.77627 63.84933,-27.8733 15.76403,-28.25334 28.40165,-36.16501 58.51198,-36.631 l 8.58954,-0.133 -6.5e-4,8.2119 -6.3e-4,8.21188 -8.33995,-0.036 c -19.23108,-0.0831 -35.39357,10.83328 -44.21816,29.86561 -2.57166,5.54636 -2.63979,5.62527 -8.69816,10.07003 -2.59404,1.90314 -6.62093,4.87967 -8.94865,6.61454 -28.1351,20.96945 -35.55873,24.13767 -64.85634,27.6791 -31.75621,3.83861 -38.20496,6.91204 -53.38236,25.44163 -9.93858,12.13368 -12.8011,14.72479 -23.47078,21.2452 -15.94047,9.74146 -25.99611,12.97459 -46.74831,15.0307 -23.53245,2.33156 -32.59029,4.97584 -42.82001,12.50044 -5.8341,4.29138 -14.34463,13.45976 -15.72877,16.94455 l -0.43043,1.08367 -53.78532,-0.12263 c -29.58194,-0.0673 -53.785343,-0.20655 -53.785362,-0.30924 z m 195.987482,-0.0839 c 2.87332,-0.96905 4.38609,-1.51396 8.90125,-3.20643 4.23793,-1.58855 11.88741,-3.87894 24.14847,-7.23046 13.45742,-3.67856 23.78908,-11.89346 35.67953,-28.36954 7.79662,-10.80339 12.62285,-14.86603 20.36948,-17.14666 10.53725,-3.10216 17.41808,-2.79336 35.06799,1.57383 22.90081,5.66642 39.5343,-2.08295 66.35289,-30.91315 11.78666,-12.67076 21.90643,-17.29852 34.14211,-15.61319 1.73481,0.23894 3.4375,0.32951 3.78375,0.20127 0.54371,-0.20139 0.78925,17.97582 0.27337,20.23848 -0.0601,0.26431 -0.0692,0.5887 -0.02,0.72086 0.54207,1.45517 0.35856,15.00557 -0.19348,14.28473 -1.18102,-1.54224 -8.41615,-3.71729 -13.4208,-4.03459 -13.99273,-0.88716 -26.51474,5.98901 -39.83497,21.87436 -15.33767,18.2913 -23.98397,22.30644 -49.83807,23.14353 -25.87498,0.83777 -36.86691,5.75995 -45.54128,20.39338 -0.88232,1.48845 -1.66059,3.07705 -1.72951,3.53023 -0.11703,0.77006 -2.70727,0.82542 -39.60035,0.84627 -21.71129,0.0116 -39.05445,-0.11952 -38.54033,-0.29292 z M 95.594937,247.38645 c -0.943767,-4.73237 1.383026,-17.5098 4.155546,-22.81981 6.930337,-13.27323 17.106367,-21.68484 43.782407,-36.1911 32.44078,-17.64104 25.01539,-28.01415 -17.72788,-24.76544 -25.58317,1.94447 -39.057526,8.89083 -55.857947,28.79617 -19.44517,23.03886 -39.731096,31.59526 -67.9442313,28.65813 l -3.3608722,-0.34988 v -10.11828 -10.11829 l 4.2095095,-4.42621 c 18.563599,-19.51923 36.677671,-33.38065 53.547701,-40.97623 14.032725,-6.31815 12.876011,-5.86974 19.418373,-7.52748 10.491959,-2.65853 25.175537,-2.67115 38.384857,-0.0329 30.40857,6.07312 47.22666,6.06317 63.53985,-0.0377 14.57277,-5.44992 21.65251,-11.31333 45.14449,-37.38842 18.1602,-20.157033 27.30067,-24.755788 56.48274,-28.417593 43.66391,-5.479 73.36648,-21.34107 83.75199,-44.726098 1.40819,-3.170782 1.52786,-2.95072 4.13234,7.599679 4.39743,17.813276 4.32176,23.209521 -0.48271,34.432291 -4.50222,10.516723 -10.52374,15.267312 -33.7846,26.653891 -15.57394,7.62371 -20.56342,13.89049 -21.66793,27.21483 -0.20816,2.51099 -0.85142,6.27605 -1.42951,8.36678 -0.57808,2.09072 -1.05103,4.43791 -1.05103,5.21597 0,1.43101 -1.28695,5.9633 -4.05778,14.29055 -9.58341,28.80129 -36.16989,40.42689 -69.81647,30.529 -22.10412,-6.50239 -35.81848,-5.41924 -52.59414,4.15384 -2.60156,1.48459 -5.3504,3.25638 -6.10852,3.93728 l -1.37839,1.23803 1.00497,1.80979 c 2.42235,4.36228 0.7503,7.32458 -9.70265,17.18979 -8.31669,7.84905 -9.76171,9.46418 -13.76996,15.391 -5.12848,7.58321 -14.5994,11.38107 -22.86488,9.16889 -4.31693,-1.15539 -5.17899,-1.1163 -12.70387,0.57601 -3.58676,0.80663 -9.18822,1.92043 -12.4477,2.47513 -3.25947,0.55468 -6.512467,1.13342 -7.228865,1.28613 -1.128582,0.24053 -1.338919,0.0954 -1.574838,-1.08769 z M -1.1509386,134.32767 c -0.1138913,-0.11012 -0.2071019,-9.04119 -0.2071019,-19.8468 V 94.834335 l 2.11610478,1.400173 C 10.912446,102.95335 28.512381,105.53923 38.948764,101.8457 55.406257,96.021239 65.070809,86.526341 75.38803,66.046067 c 7.720479,-15.325585 7.968786,-15.78319 11.06861,-20.399129 12.606214,-18.771816 26.60771,-22.572996 58.56997,-15.90078 24.88326,5.194455 32.18358,5.271961 45.92801,0.487613 11.57014,-4.027488 27.11081,-16.016685 35.96194,-27.7436484 l 2.4484,-3.24387598 29.65391,0.0153254 c 24.0237,0.0122979 29.49662,0.13075781 28.82545,0.62344294 -0.45567,0.33448717 -2.16547,2.32799984 -3.79958,4.43002764 -12.4831,16.0575264 -29.66135,24.9069464 -53.12918,27.3696584 -27.09089,2.842917 -35.81069,6.919894 -56.51244,26.422601 -9.28895,8.750953 -17.68491,15.470876 -21.95896,17.575432 -6.08402,2.995774 -14.98223,5.84522 -23.23482,7.440423 l -8.59761,1.661879 -15.05297,-0.11541 c -16.208203,-0.124307 -17.421274,0.0037 -29.454077,3.098835 -8.007385,2.059922 -21.451697,12.176255 -33.235664,25.008569 -11.508121,12.53195 -17.60907,16.82162 -28.653587,20.14676 -3.051347,0.91866 -14.76166851,1.98854 -15.3663706,1.40391 z M 484.76621,79.066487 c -6.70207,-1.851082 -14.1624,-7.761105 -19.16584,-15.183005 -1.24728,-1.850211 -3.28189,-4.877828 -4.52133,-6.728038 C 453.46547,45.790099 441.93573,40.679567 419.87127,38.890194 389.68089,36.441826 380.91109,27.599441 385.3369,4.0699744 l 0.90733,-4.82372778 h 59.91804 c 53.12358,0 60.00446,0.0834004 60.67998,0.73541483 0.80565,0.77759929 1.24805,3.58975315 0.56471,3.58975315 -0.22106,0 -0.40194,0.2094716 -0.40194,0.465491 0,0.2560211 0.33608,0.3410128 0.74685,0.1888618 0.41078,-0.1521377 0.74688,-0.055248 0.74688,0.2153219 0,0.2705691 -0.28008,0.6010205 -0.62239,0.7343382 -0.42378,0.1650412 -0.43763,0.254502 -0.0435,0.2803355 0.56491,0.037027 0.40173,2.8705304 -0.19584,3.4019584 -0.14859,0.132158 -0.15759,-0.3595849 -0.02,-1.0927613 0.13761,-0.7331766 0.0562,-1.44878 -0.18094,-1.5902278 -0.93743,-0.5592048 -0.58684,4.0430637 0.37902,4.9753017 0.46594,0.44972 0.55344,0.885953 0.24928,1.242764 -0.25775,0.302394 -0.51225,1.306708 -0.56554,2.231814 -0.14269,2.478581 -0.0504,2.972604 0.49514,2.647209 0.53107,-0.316798 0.38748,2.136374 -0.17662,3.017344 -0.18191,0.284073 -0.12638,0.638418 0.12353,0.787431 0.26984,0.160975 0.24311,1.003446 -0.0658,2.075648 -0.64711,2.245807 -0.55717,6.099589 0.17309,7.416663 0.41958,0.756692 0.40835,0.907338 -0.0473,0.635515 -0.44185,-0.263559 -0.4711,-0.122321 -0.11257,0.542725 0.54057,1.002539 0.5378,6.175315 -0.004,6.697864 -0.19074,0.184074 -0.12273,0.738769 0.15113,1.232649 0.35132,0.633578 0.33027,0.89796 -0.0715,0.89796 -0.35493,0 -0.4546,0.441462 -0.26466,1.171984 0.16761,0.64459 0.0798,1.306129 -0.19505,1.470083 -0.82211,0.490405 -0.56519,1.680251 0.37161,1.721041 0.47923,0.02088 0.64346,0.130229 0.36493,0.243022 -0.27852,0.112806 -0.47035,0.945162 -0.42626,1.849705 0.0536,1.10436 -0.11608,1.571986 -0.51688,1.423502 -0.73832,-0.273455 -0.7414,3.552706 -0.004,4.046556 0.87333,0.584297 0.53385,2.257152 -0.44234,2.179805 -0.65189,-0.05165 -0.85737,0.212797 -0.74686,0.96113 0.0979,0.662966 0.50881,1.032402 1.14829,1.032402 1.0832,0 1.31317,3.662391 0.25142,4.003978 -0.27523,0.08855 -0.50038,0.480121 -0.50038,0.870179 0,0.390043 0.18583,0.598297 0.41299,0.462809 0.57861,-0.345143 0.3857,1.414685 -0.24026,2.191986 -0.8901,1.105264 -1.1469,2.279 -0.57347,2.621078 0.36899,0.2201 0.26286,0.532813 -0.32055,0.944555 -0.99794,0.704307 -0.63,1.640632 0.6447,1.640632 1.23758,0 1.23554,1.769024 -10e-4,2.081472 -0.79186,0.199873 -0.90185,0.432592 -0.51763,1.095256 0.34626,0.597198 0.28688,1.035467 -0.20461,1.509835 -1.03136,0.995469 -0.83858,1.954594 0.4278,2.128187 0.78186,0.107274 1.15395,0.516523 1.23168,1.355029 0.0613,0.660772 -0.004,0.956268 -0.14663,0.65661 -0.18249,-0.385235 -1.60055,-0.212116 -4.84151,0.591086 -5.74564,1.423919 -13.45043,1.525578 -18.1089,0.238926 z"
             id="path27" /></g></g><path
         id="path3-9"
         style="display:inline;fill:#e6e6e6;stroke-width:4;stroke-linecap:square"
         d="m 273.58175,101.11104 c -7.24233,0.37347 -16.32994,14.26445 -23.63871,14.32097 -6.68386,-0.40323 -5.03246,-11.93046 -10.33552,-11.16 -8.86089,1.97732 -3.66797,17.62704 -5.86957,20.08665 -2.02559,2.26299 -8.03232,-0.98474 -9.91759,2.60396 -2.7622,5.25804 7.2575,8.91484 8.42307,13.81135 0.93603,3.93218 -3.78409,7.07629 -2.03547,10.82916 0.3485,0.74792 0.99215,1.37717 2.04539,1.79862 9.32678,1.31289 13.98503,-4.97195 17.57432,-12.91508 2.38145,-5.59082 12.15737,-27.98072 17.31376,-24.98589 3.66014,2.12571 -1.89768,7.11176 0.44316,9.24756 1.81799,1.65872 6.30068,-2.689 8.02118,-0.1574 1.31944,1.94157 -4.57228,5.3287 -4.45223,9.8672 0.0369,1.39232 2.34347,2.52452 2.50002,3.78599 0.54589,4.3988 -9.91043,3.28901 -9.56534,8.92892 6.33248,-5.69145 18.59258,-2.05374 18.93664,-7.14788 0.26408,-3.9099 -5.49739,-4.2726 -6.11484,-7.15552 -0.92833,-4.33445 9.56849,-8.61115 7.42292,-13.0702 -2.22053,-4.61483 -8.38505,-0.16732 -9.70595,-1.91553 -2.2524,-2.98106 7.25691,-12.46136 1.93537,-16.02561 -0.94872,-0.5781 -1.946,-0.80061 -2.98061,-0.74727 z m -13.14806,28.16977 a 5.1749593,5.174985 0 0 0 -5.17503,5.17504 5.1749593,5.174985 0 0 0 5.17503,5.17506 5.1749593,5.174985 0 0 0 5.17426,-5.17506 5.1749593,5.174985 0 0 0 -5.17426,-5.17504 z m -18.40333,2.23337 a 5.1749593,5.174985 0 0 1 5.17503,5.17507 5.1749593,5.174985 0 0 1 -5.17503,5.17504 5.1749593,5.174985 0 0 1 -5.17501,-5.17504 5.1749593,5.174985 0 0 1 5.17501,-5.17507 z m 53.65663,7.10739 c -2.05796,0.0939 -4.27139,2.41361 -5.7649,3.76993 -1.54295,1.64376 -5.85003,2.05021 -7.14939,3.78596 -0.51324,0.68563 -0.99158,1.91922 0.31787,2.61159 1.22247,0.6464 2.29107,0.5142 2.94852,1.2355 3.79105,4.15915 -5.93256,15.89108 0.61584,18.23685 4.49222,1.6092 5.89997,-4.40965 5.14064,-8.06781 -0.77738,-3.74518 -1.98483,-10.06512 -0.0542,-11.81101 2.57528,-2.32891 8.87987,-3.51995 6.57328,-8.20994 -0.78879,-1.17674 -1.69219,-1.59374 -2.62761,-1.55107 z m -18.32235,7.69649 c -1.55327,0.008 -3.00702,0.66136 -4.00829,1.61448 -2.59178,2.46707 -2.67167,8.64671 0.75489,9.21087 1.94303,0.31993 3.38584,2.32613 2.82781,3.543 -1.39177,3.03502 -2.87279,0.34787 -4.56224,1.30198 -1.53334,0.86595 -1.38188,3.54584 1.38831,4.71966 3.15151,1.33538 9.17489,-2.0282 8.43073,-6.56412 -1.03018,-6.27936 -8.22553,-5.6487 -6.5641,-8.41319 1.1127,-1.85147 4.54826,0.9606 5.66708,-1.24315 1.14188,-2.74866 -1.34541,-4.1825 -3.93419,-4.16953 z m -55.9595,1.59003 c -1.81079,-0.0958 -3.70151,0.8021 -4.39261,2.7323 -1.23747,3.94307 -0.85219,8.15478 -2.79498,12.04635 -1.99678,3.99976 -4.59799,7.83221 -5.01303,12.4811 -0.43899,4.91719 7.51693,6.27317 7.09207,0.84582 -0.19688,-2.51528 0.92375,-3.68037 2.30137,-3.62551 4.58013,0.18225 0.95469,15.18228 24.11269,11.74788 18.98342,-2.81532 20.15042,-17.2958 21.50823,-17.34474 3.14215,-0.11326 5.49996,18.40856 15.80625,14.81762 3.53555,-2.03642 3.58742,-8.11092 -0.75567,-9.21241 -5.347,-2.09469 -11.99944,-5.76053 -12.59641,-11.9936 -0.14504,-1.51511 0.44823,-3.3946 1.45403,-4.97869 1.51004,-2.37821 3.51652,-4.42446 1.88494,-6.23634 -2.413,-2.67968 -5.33401,5.55704 -6.36697,5.73663 -1.60477,0.279 -3.54064,-7.8494 -6.13926,-3.32753 -0.92729,1.61358 0.38634,3.28301 1.55257,5.05127 1.12081,1.69941 2.07944,3.50839 2.05993,4.56304 -0.0578,3.12911 -3.06352,14.81181 -19.66294,17.4206 -17.17653,2.63334 -16.52543,-7.37861 -16.73874,-11.2874 -0.72211,-5.44325 1.78839,-10.8571 0.60286,-16.20442 -0.37245,-2.04647 -2.10352,-3.13618 -3.91433,-3.23201 z m 30.04388,4.8381 c -3.75038,0.14843 -7.26544,2.53998 -6.45102,6.9286 0.77561,4.17961 -1.37297,8.63599 0.62271,12.34993 1.39862,2.60277 6.8089,0.21142 8.95257,-1.11046 2.48818,-2.28622 3.40278,-7.34774 0.21166,-9.3293 1.63823,-2.91017 2.76857,-9.07974 -3.33592,-8.83883 z m -10.2683,3.07003 c -2.32813,-0.1202 -3.96098,4.51956 -4.81209,6.84836 -0.29844,1.4613 -0.68128,1.98688 -1.0949,1.9545 -0.95639,-0.0749 -2.07564,-3.13149 -2.68647,-4.49655 -0.50998,-1.89857 -1.52624,-2.50245 -2.53746,-2.32125 -1.75533,0.31452 -3.01912,2.85416 -2.54512,5.36454 0.78721,4.16927 -1.42174,9.28178 1.11326,12.86771 0.5702,0.8066 1.40551,0.81873 1.85897,0.80839 2.38711,-0.0574 0.60367,-7.09878 1.46241,-8.75625 0.54379,3.30177 4.74071,6.11654 5.65334,1.26224 1.65129,-4.77908 0.94135,1.61912 1.12242,3.30842 0.16382,1.52832 0.8682,2.18614 1.54036,2.2991 1.72569,0.29005 3.96011,-3.15668 3.29695,-5.76415 -1.09887,-4.32072 0.29986,-12.25628 -1.62746,-13.17717 -0.25565,-0.12213 -0.50336,-0.18547 -0.74421,-0.19789 z m 9.63794,1.56253 c 1.13914,0.0547 2.04067,1.00746 0.38738,2.82401 -0.46351,0.50927 -1.52535,1.23143 -1.98962,0.6655 -1.85904,-2.26613 0.13766,-3.55983 1.60224,-3.48951 z m -31.04326,2.96154 c 2.00278,-0.0133 2.22045,7.88204 -1.02768,7.17996 -2.37693,-0.51375 -0.36919,-7.00336 0.9314,-7.17309 0.0327,-0.005 0.0645,-0.008 0.0962,-0.008 z m 31.02951,4.0809 c 1.42788,0.0483 2.7,1.33334 1.05672,3.4429 -1.08804,1.39674 -2.49315,1.20715 -2.87824,-0.70218 -0.40134,-1.98993 0.71096,-2.77833 1.82152,-2.74072 z" /></g><g
       id="g66"
       inkscape:label="red"><g
         id="g65"
         transform="matrix(1.0716645,0,0,1.0717013,-14.545619,-8.1948041)"
         style="stroke-width:0.933112"><g
           id="g64"
           clip-path="url(#clipPath46)"><path
             style="fill:#5c5c5c;stroke:#5c5c5c;stroke-width:1.86623;stroke-dasharray:none"
             d="m 195.08646,281.34866 c 13.42444,-16.90387 23.38035,-21.31071 55.93659,-24.75944 7.69112,-0.81474 13.65304,-1.81475 18.72926,-3.14154 1.91695,-0.50103 6.28609,-1.47668 9.7092,-2.16811 19.41709,-3.92202 27.42506,-8.57015 47.55011,-27.59986 21.47157,-20.30295 31.28047,-24.2788 59.49988,-24.11714 39.90491,0.2286 55.92102,-6.84034 72.21946,-31.87506 14.01985,-21.53477 25.87965,-26.7 45.19836,-19.68499 l 4.32047,1.56884 0.13071,17.40172 c 0.12366,16.4641 0.0836,17.38217 -0.74687,17.0388 -10.79557,-4.46434 -25.94701,1.53115 -38.84899,15.37273 -13.00912,13.95649 -17.08433,17.74531 -24.01803,22.33007 -13.70806,9.06411 -26.37727,11.53371 -41.32629,8.05573 -13.52075,-3.14576 -14.95518,-3.36622 -21.9079,-3.36736 -15.54601,-0.001 -24.04932,4.78493 -34.55653,19.45582 -12.15207,16.96758 -21.34663,24.18843 -35.771,28.09242 -19.00743,5.1444 -29.07038,8.6282 -32.68188,11.31454 -1.13149,0.8416 -3.21539,0.88323 -44.21817,0.88323 H 191.27417 Z M -1.3580405,150.8505 c 0,-15.78463 0.019799,-16.10591 0.96307761,-15.61866 2.25638119,1.16554 11.08415389,0.15381 17.39342089,-1.99328 9.003903,-3.06418 13.733254,-6.25618 21.973968,-14.83086 C 67.146434,89.091793 73.362234,86.090646 106.18987,85.953171 l 16.67988,-0.06981 7.97214,-1.69408 c 18.15881,-3.858746 27.4115,-8.950449 42.31647,-23.286565 21.41488,-20.597563 30.5074,-25.030605 57.01036,-27.795264 20.89656,-2.179832 33.01418,-7.211801 46.96114,-19.501092 3.85998,-3.401198 10.52126,-11.2007998 11.34078,-13.2787969 l 0.42645,-1.08129209 h 31.68269 c 29.9751,0 31.66387,0.045333 31.33345,0.84100481 -0.19211,0.46255283 -0.90116,2.46294288 -1.5757,4.44531158 -6.77737,19.9172866 -26.72132,42.0931376 -44.2507,49.2027236 -15.05934,6.107777 -27.56553,6.371828 -49.52905,1.045741 C 216.94097,45.17409 202.30989,48.37931 180.5699,71.427671 160.12124,93.106998 155.03357,94.942545 122.75507,92.286332 79.186432,88.701041 70.898163,90.939759 59.236398,109.44313 c -3.833884,6.08312 -11.118185,18.67591 -13.815331,23.88333 -4.463992,8.61872 -9.507829,14.73666 -16.103823,19.53318 -4.161227,3.02597 -27.9415007,14.10703 -30.27413614,14.10703 -0.22062766,0 -0.40114836,-7.25227 -0.40114836,-16.11615 z M 7.6042853,94.107078 C 6.6458145,94.005097 4.2371795,93.661923 2.2517852,93.344347 L -1.3580405,92.766938 V 46.006589 -0.75375338 H 60.382427 c 33.957255,0 61.725393,0.16218435 61.706983,0.36043066 C 121.83433,2.3524493 108.33287,10.347778 97.945235,13.904445 77.805113,20.800309 72.410311,26.52776 69.152195,44.472819 63.790679,74.003012 35.219598,97.043651 7.6042853,94.107078 Z"
             id="path61" /><path
             style="display:inline;fill:#454545;stroke:#454545;stroke-width:1.86623;stroke-dasharray:none"
             d="m 359.2883,283.69567 c 10.60424,-16.45562 19.95799,-20.63675 47.6897,-21.31727 23.31363,-0.57213 32.99988,-5.19163 48.0399,-22.91089 16.57908,-19.53247 32.16611,-25.97512 48.50177,-20.04743 l 4.73012,1.71643 0.128,32.50626 0.12799,32.50629 h -75.39919 -75.3992 z m -167.18617,0.65123 c 7.33117,-10.95146 22.16724,-22.12029 32.58961,-24.53396 4.04365,-0.93644 14.70075,-2.49668 23.73735,-3.47525 12.24359,-1.32584 19.96335,-2.83621 38.50102,-7.53266 12.90212,-3.26869 22.74975,-9.67476 40.08151,-26.07365 21.98403,-20.80076 29.0112,-23.48464 62.98523,-24.05591 28.37172,-0.47707 30.22032,-0.94086 39.73334,-9.96842 7.06797,-6.70732 16.19069,-18.72854 20.52063,-27.04056 1.16547,-2.23732 2.84299,-4.9336 3.7278,-5.99175 0.88477,-1.05812 1.8254,-2.57266 2.09025,-3.3656 0.58561,-1.75325 1.73717,-1.87733 2.23005,-0.24029 0.19896,0.66079 0.9685,3.14224 1.71006,5.51433 l 1.34833,4.31288 1.53832,-1.88665 c 9.80801,-12.0288 19.54619,-16.92243 30.96657,-15.56126 4.29754,0.51222 13.64071,3.49998 13.64071,4.36203 0,0.51897 0.0294,0.52581 -3.79949,-0.88492 -18.92892,-6.97423 -31.02725,-1.65786 -44.97246,19.76225 -16.29844,25.03472 -32.31455,32.10366 -72.21946,31.87506 -28.21941,-0.16158 -38.02831,3.81419 -59.49988,24.11714 -20.12505,19.02971 -28.13302,23.67784 -47.55011,27.59986 -3.42311,0.69143 -7.79225,1.66708 -9.7092,2.16811 -5.07622,1.32679 -11.03814,2.3268 -18.72926,3.14154 -32.41906,3.43421 -42.65697,7.94087 -55.75739,24.54391 -3.45996,4.38504 -4.98412,5.93343 -3.16353,3.21377 z M 81.128545,253.6302 c -0.974232,-0.94033 -0.265048,-10.33572 1.372497,-18.18335 3.681318,-17.64182 3.447438,-20.85277 -1.863034,-25.57738 -6.251986,-5.56229 -14.233456,-3.80912 -27.973139,6.14447 -6.290017,4.55673 -15.662764,9.16478 -25.891165,12.72922 -3.560035,1.24062 -7.680294,2.67461 -9.156117,3.18665 -8.3087551,2.88273 -16.4929142,8.32613 -18.21461392,12.11484 -0.59858608,1.3172 -0.68464168,0.0453 -0.72039688,-10.64777 l -0.040577,-12.14366 1.36924417,0.36959 c 2.77798783,0.74983 21.00744063,0.38293 25.76668563,-0.51862 18.962592,-3.59207 30.028047,-10.44662 44.338343,-27.46566 19.760302,-23.50067 34.163978,-29.55349 70.330938,-29.55493 29.85815,-10e-4 30.24129,8.57878 1.0941,24.5004 -19.29591,10.54036 -24.36014,13.95006 -31.72682,21.36142 -11.109843,11.17731 -15.076442,20.17715 -15.076442,34.20719 0,4.772 -0.04548,4.98293 -1.120292,5.19584 -4.932238,0.97699 -6.547299,1.50438 -9.033541,2.94994 -3.157985,1.83613 -2.997283,1.77419 -3.455631,1.33181 z M 202.10509,252.84 c -0.65561,-2.52124 0.63477,-4.75554 5.33634,-9.23975 6.89166,-6.57306 8.79281,-7.35984 41.13054,-17.02163 19.83063,-5.92497 25.68365,-8.49209 38.23929,-16.77157 9.23129,-6.08736 9.22461,-5.79001 -0.0856,3.81885 -22.70825,23.43633 -49.70567,37.29355 -77.56468,39.81236 -7.20238,0.65119 -6.72022,0.69208 -7.05575,-0.59826 z m -203.4613271,-69.30418 0.00178,-16.32889 4.3549023,-1.63069 C 27.028712,156.57879 37.50144,148.61702 45.421063,133.32645 48.118209,128.11902 55.40251,115.52623 59.236394,109.44312 70.898159,90.939735 79.186428,88.701016 122.75507,92.286307 c 32.2785,2.656215 37.36617,0.820666 57.81483,-20.858661 21.73999,-23.048361 36.37107,-26.253581 75.98788,-16.646617 21.96352,5.326085 34.46971,5.062034 49.52905,-1.045742 17.68426,-7.172406 37.67012,-29.507272 44.35049,-49.5631548 0.72632,-2.1806054 1.5354,-3.96473718 1.79793,-3.96473718 0.26255,0 0.34964,-0.19947234 0.19348,-0.44327103 -0.16916,-0.2641985 3.65604,-0.46519772 9.46887,-0.49754945 l 9.75272,-0.0542823 -0.26943,2.53998996 c -0.14819,1.3969951 -0.40629,4.1619278 -0.5736,6.1442965 -3.52237,41.7375053 -34.33368,66.3130063 -91.59478,73.0571263 -25.58923,3.013862 -39.14346,9.058824 -51.83408,23.117125 -8.8962,9.85498 -15.69053,14.79102 -28.57823,20.76197 -24.61008,11.40195 -36.04512,12.03563 -62.44878,3.46048 -21.78818,-7.07618 -31.0188,-7.05801 -46.053217,0.0906 -8.690907,4.13242 -22.956531,15.66921 -24.986188,20.20664 -0.868672,1.94201 -1.239632,2.19589 -7.144495,4.8896 -19.787156,9.02665 -43.305244,27.0849 -57.91895182,44.47283 L -1.3580835,199.8646 Z M 76.516181,127.3697 c 0.914346,-0.36876 3.768921,-1.9643 6.343491,-3.54569 21.657028,-13.30249 33.009898,-15.09463 57.258258,-9.03877 26.57621,6.63726 33.1498,4.47617 58.2378,-19.145792 29.38992,-27.672485 46.21117,-34.708697 74.84686,-31.307935 23.53188,2.794634 38.99521,-1.462648 54.78174,-15.08224 14.3881,-12.41307 21.20883,-24.497682 24.19212,-42.8622234 0.83794,-5.1581713 0.40504,-5.5452341 -1.2274,-1.0974914 C 336.06294,45.847851 301.34109,65.669762 261.03894,56.6172 225.07886,48.539951 223.8399,48.842708 199.29847,71.704336 c -24.59276,22.909446 -32.28838,26.525143 -50.03964,23.510522 -2.46465,-0.418554 -7.39393,-0.880813 -10.95395,-1.027217 -6.16159,-0.253419 -19.35964,-1.375787 -23.21169,-1.973931 -9.6306,-1.495456 -30.903439,6.523512 -39.524835,14.89922 -12.068992,11.72506 -11.436101,25.25098 0.947826,20.25677 z m 243.587099,51.97173 c 10.34642,-16.79439 25.9187,-25.99867 52.22564,-30.86888 24.70918,-4.57444 32.50134,-7.16314 42.55692,-14.13807 6.16394,-4.27553 8.10051,-6.07243 15.0705,-13.98352 11.4405,-12.98527 15.7873,-16.78319 23.50728,-20.539012 6.29815,-3.064097 9.31529,-3.852332 20.43058,-5.337609 3.65593,-0.48852 2.93678,-0.90189 -4.73011,-2.71882 -23.22598,-5.504203 -34.06111,-2.181334 -66.05372,20.257091 -15.65539,10.9801 -22.45741,13.42945 -43.86404,15.795 -20.04347,2.21494 -24.17757,4.07512 -34.25569,15.41385 -6.15529,6.92518 -7.65591,7.87911 -11.34431,7.21123 -3.78395,-0.68514 -4.57073,-4.06668 -2.57794,-11.07962 0.67903,-2.38952 1.46215,-5.22887 1.74027,-6.30963 0.50279,-1.95371 3.88174,-6.21598 7.1391,-9.00537 2.00314,-1.71536 5.76085,-3.57051 12.89988,-6.36856 25.59273,-10.03073 32.96407,-18.124433 46.79715,-51.383157 6.09859,-14.662813 9.89798,-21.215309 15.73339,-27.134285 l 2.83811,-2.878708 2.42976,0.705794 c 3.68692,1.070977 10.03907,2.042536 20.47973,3.132367 23.07508,2.408657 32.43735,7.038443 40.78264,20.167654 12.48865,19.647747 25.19775,24.831005 45.47004,18.544452 l 1.12029,-0.347396 -8.6e-4,12.166871 -8.1e-4,12.166898 -10.0818,0.0152 c -28.84689,0.0452 -42.1322,8.49444 -57.76729,36.73906 -13.81792,24.96192 -25.35817,30.29512 -59.86241,27.6647 -30.18987,-2.30152 -40.74346,-0.48699 -55.83838,9.60053 -4.76738,3.18593 -5.49046,3.56079 -4.84392,2.51136 z m 83.49459,-75.79667 c 3.46556,-1.278 7.50691,-4.196168 15.52655,-11.211304 3.28618,-2.87459 7.41475,-6.23475 9.1746,-7.467044 12.38167,-8.670013 14.7048,-19.773076 5.73221,-27.396136 -13.03149,-11.071438 -32.59166,-0.925124 -39.537,20.50875 -1.14173,3.523499 -3.2929,8.799769 -4.78036,11.725028 -6.05479,11.907566 0.74493,18.686076 13.884,13.840706 z"
             id="path62" /><path
             style="display:inline;fill:#2e2e2e;stroke:#2e2e2e;stroke-width:1.86623;stroke-dasharray:none"
             d="m 61.613982,285.25413 c 0.0982,-0.49221 0.868513,-2.21413 1.71178,-3.82649 0.843266,-1.61234 2.209394,-4.57449 3.035841,-6.58252 2.971093,-7.21894 5.918781,-11.93103 10.470652,-16.73812 l 2.5761,-2.72056 0.134869,-7.08555 c 0.104677,-5.49796 0.415536,-8.26997 1.387768,-12.37184 6.621868,-27.93791 -3.584578,-36.25937 -25.174294,-20.52488 -10.016577,7.30007 -15.381544,9.90035 -33.962002,16.4608 -12.1401869,4.28647 -17.2061758,7.12708 -20.5595009,11.52816 -1.47541199,1.93642 -2.18794837,2.11273 -1.73161857,0.42847 0.8155874,-3.0103 10.11895997,-9.11791 18.11407247,-11.89179 1.475824,-0.51204 5.596082,-1.94603 9.156117,-3.18665 10.228402,-3.56444 19.601148,-8.17249 25.891163,-12.72922 13.739685,-9.95359 21.721153,-11.70676 27.973141,-6.14447 5.310471,4.72461 5.54435,7.93556 1.863035,25.57738 -3.110705,14.90734 -2.541364,19.54033 2.071684,16.85819 2.496317,-1.45139 4.111418,-1.97933 9.044991,-2.95659 1.074812,-0.21291 1.12029,-0.42384 1.12029,-5.19584 0,-14.03004 3.966597,-23.02988 15.07644,-34.20719 7.36668,-7.41136 12.43091,-10.82106 31.72681,-21.36142 29.14721,-15.92162 28.76406,-24.50159 -1.09409,-24.5004 -36.16694,0.001 -50.570633,6.05426 -70.330935,29.55493 -14.308436,17.01684 -25.30481,23.83085 -44.338343,27.47468 -5.649402,1.08155 -24.7556415,1.27289 -26.38907054,0.2643 -0.83848316,-0.51774 -0.44513666,-0.56341 2.48953504,-0.28909 28.9121465,2.70263 48.5709645,-5.58103 68.0687075,-28.6822 16.80042,-19.90534 30.274776,-26.8517 55.857946,-28.79617 42.74327,-3.24871 50.16867,7.12438 17.72787,24.76544 -36.20392,19.68746 -47.290995,32.31941 -47.905872,54.58127 -0.184459,6.67852 -1.547803,6.54111 19.774142,1.99302 9.09605,-1.94022 9.7886,-1.98002 14.14906,-0.81298 8.26548,2.2122 17.73639,-1.58569 22.86487,-9.16888 4.00825,-5.92683 5.45329,-7.54195 13.76997,-15.39102 10.45296,-9.8652 12.12499,-12.8275 9.70264,-17.18977 l -1.00496,-1.80981 1.3784,-1.23802 c 0.7581,-0.6809 3.50695,-2.4527 6.1085,-3.93727 16.77567,-9.57309 30.49004,-10.65623 52.59416,-4.15383 33.64656,9.89788 60.23304,-1.72772 69.81645,-30.52902 2.77083,-8.32724 4.05778,-12.85954 4.05778,-14.29055 0,-0.77806 0.47296,-3.12524 1.05104,-5.21596 0.5781,-2.09073 1.22136,-5.8558 1.42952,-8.36679 1.10451,-13.32433 6.09397,-19.59111 21.66791,-27.21482 36.10667,-17.674821 42.27117,-28.663832 34.26733,-61.086186 -2.60448,-10.550399 -2.72417,-10.77046 -4.13234,-7.599678 -10.38551,23.385027 -40.0881,39.247097 -83.75199,44.726098 -29.18207,3.661806 -38.32254,8.260559 -56.48275,28.417606 -23.49198,26.07509 -30.57173,31.93849 -45.14448,37.38842 -16.31321,6.10082 -33.1313,6.11077 -63.53986,0.0377 -13.20932,-2.63816 -27.892897,-2.62553 -38.384856,0.0328 -6.54236,1.65775 -5.385647,1.20934 -19.418372,7.52748 -16.309179,7.34308 -33.159763,20.05033 -51.7742508,39.04364 -3.3675763,3.43611 -5.61733179,5.53017 -4.99947621,4.65348 0.6178359,-0.8767 3.68800091,-4.22871 6.82256081,-7.4489 C 23.249564,174.063 40.140609,161.70374 58.167625,153.48006 c 5.904864,-2.6937 6.275824,-2.94759 7.144494,-4.88959 2.029657,-4.53744 16.295281,-16.07424 24.98619,-20.20665 15.034411,-7.14869 24.265031,-7.16687 46.053211,-0.0906 26.40366,8.57515 37.8387,7.94149 62.44878,-3.46047 12.88769,-5.97095 19.68202,-10.90699 28.57822,-20.76197 12.69064,-14.058301 26.24486,-20.103262 51.83408,-23.117126 57.2611,-6.74412 88.07242,-31.319616 91.5948,-73.0571217 0.16741,-1.9823685 0.42444,-4.7396631 0.57139,-6.1273212 l 0.26723,-2.52301464 h 7.18382 c 8.27654,0 7.69874,-0.48439606 6.4115,5.37504284 -4.87812,22.2049577 4.8744,31.8557977 34.63,34.2689057 22.06531,1.789443 33.60572,6.905121 41.20436,18.265248 5.98849,8.952909 7.88211,11.402872 11.21174,14.505868 8.40268,7.830768 18.43545,10.177803 30.6099,7.160801 3.43968,-0.852414 4.60564,-0.986577 4.60564,-0.529956 0,0.854969 -7.8201,2.694149 -12.69662,2.986088 C 481.59592,82.068991 471.77353,75.799238 461.90848,60.279075 453.56319,47.149894 444.20093,42.520108 421.12584,40.11145 410.68518,39.021617 404.33302,38.05006 400.6461,36.979082 l -2.42976,-0.705792 -2.83809,2.878707 c -5.83543,5.918978 -9.63481,12.471473 -15.73341,27.134286 -13.83307,33.258723 -21.20442,41.352427 -46.79715,51.383157 -7.13901,2.79805 -10.89672,4.6532 -12.89986,6.36856 -3.25737,2.78939 -6.63631,7.05167 -7.13912,9.00538 -0.27811,1.08076 -1.06123,3.92009 -1.74026,6.30961 -1.99279,7.01295 -1.206,10.39448 2.57793,11.07964 3.6884,0.66786 5.18903,-0.28605 11.34431,-7.21123 10.07814,-11.33875 14.21224,-13.19892 34.25569,-15.41385 21.40665,-2.36556 28.20866,-4.81491 43.86404,-15.79501 31.99261,-22.438426 42.82776,-25.761294 66.05373,-20.257091 7.66689,1.81693 8.38605,2.230299 4.7301,2.71882 -11.11529,1.485277 -14.13243,2.273513 -20.43058,5.337609 -7.71998,3.755822 -12.06676,7.553732 -23.50728,20.539012 -6.96998,7.91109 -8.90654,9.70799 -15.0705,13.98353 -10.05558,6.97493 -17.84773,9.56362 -42.55691,14.13806 -24.7843,4.58835 -38.75713,12.23215 -49.5674,27.11572 -3.68193,5.06927 -3.60784,5.11348 2.13652,1.27468 15.14929,-10.12389 25.66872,-11.93714 55.88753,-9.6334 34.50426,2.63043 46.04449,-2.70277 59.86241,-27.66469 12.93644,-23.36955 23.44495,-32.13641 42.95541,-35.83606 5.24121,-0.99386 23.89953,-1.56738 23.89953,-0.73464 0,0.3734 -2.48475,0.53669 -8.16599,0.53669 -28.91297,0 -42.25141,8.40839 -57.93843,36.52364 -14.56096,26.09703 -25.2558,30.76582 -63.84933,27.87331 -29.20112,-2.1886 -37.9173,-0.16404 -58.00616,13.47301 -5.04796,3.42676 -18.99182,17.05103 -22.93884,22.41311 -19.3321,26.26288 -57.36211,48.18941 -87.34755,50.36102 -2.32772,0.16857 -4.82065,0.41462 -5.53987,0.54677 -1.60216,0.29438 -2.92456,-0.84337 -2.92456,-2.51623 0,-1.84482 -4.42085,-6.05163 -7.97939,-7.59298 -7.66135,-3.31854 -10.61084,-2.90676 -28.46354,3.97379 -7.23412,2.78811 -12.75819,4.29409 -22.31009,6.08226 -21.25051,3.97821 -25.40929,4.99546 -32.41826,7.92959 -10.044853,4.20502 -18.367387,10.95134 -23.845227,19.32909 l -2.738487,4.18822 -10.800897,0.0171 c -10.271409,0.0151 -10.792133,-0.0271 -10.622316,-0.87813 z M 209.16083,253.43826 c 27.85901,-2.51881 54.85645,-16.37603 77.56469,-39.81236 9.31035,-9.60886 9.31703,-9.90621 0.0856,-3.81885 -12.55563,8.27948 -18.40866,10.8466 -38.23928,16.77157 -32.33775,9.66179 -34.23889,10.44857 -41.13055,17.02163 -4.70156,4.48421 -5.99195,6.71851 -5.33634,9.23975 0.33553,1.29034 -0.14663,1.24945 7.05575,0.59826 z m -17.82886,31.49186 c 0,-1.84291 10.15526,-12.73819 15.61803,-16.75615 10.30193,-7.57722 19.30944,-10.2129 42.88604,-12.54885 20.7522,-2.05609 30.80784,-5.28924 46.74831,-15.03069 10.66968,-6.52042 13.5322,-9.11152 23.47078,-21.24519 15.1774,-18.52959 21.62615,-21.60302 53.38236,-25.44164 29.29761,-3.54144 36.72124,-6.70965 64.85634,-27.67911 2.32772,-1.73486 6.35461,-4.7114 8.94865,-6.61452 6.05837,-4.44477 6.1265,-4.52367 8.69816,-10.07003 9.23669,-19.92112 27.13738,-31.25344 47.27566,-29.9286 l 5.28245,0.34752 v 14.61128 c 0,9.42046 -0.17683,14.61126 -0.49792,14.61126 -0.27385,0 -0.49792,-0.16876 -0.49792,-0.37522 0,-0.86205 -9.34317,-3.84981 -13.64071,-4.36203 -11.42038,-1.36117 -21.15856,3.53246 -30.96657,15.56126 l -1.53832,1.88665 -1.34833,-4.31288 c -0.74156,-2.37209 -1.5111,-4.85354 -1.71006,-5.51433 -0.49288,-1.63704 -1.64444,-1.51296 -2.23005,0.24029 -0.26485,0.79294 -1.20548,2.30748 -2.09025,3.3656 -0.88481,1.05815 -2.56233,3.75443 -3.7278,5.99175 -4.32994,8.31202 -13.45266,20.33324 -20.52063,27.04056 -9.51302,9.02756 -11.36162,9.49135 -39.73334,9.96842 -33.97403,0.57127 -41.0012,3.25515 -62.98523,24.05591 -17.33176,16.39889 -27.17939,22.80496 -40.08151,26.07365 -18.53767,4.69645 -26.25743,6.20682 -38.50102,7.53266 -9.0366,0.97857 -19.6937,2.53881 -23.73735,3.47525 -9.45863,2.19048 -22.68605,11.61141 -30.45672,21.69212 -1.59668,2.07136 -2.90305,3.61262 -2.90305,3.42506 z M 68.722348,127.52107 c -14.584655,-8.19908 25.312553,-38.577326 46.370842,-35.30736 3.85205,0.598144 17.0501,1.720512 23.21169,1.973931 3.56002,0.146442 8.4893,0.608663 10.95395,1.027217 17.75126,3.014621 25.44688,-0.601076 50.03964,-23.510522 24.54143,-22.861628 25.78039,-23.164385 61.74047,-15.087136 40.30215,9.052562 75.024,-10.769349 89.91011,-51.3276418 1.63244,-4.4477427 2.06534,-4.0606799 1.2274,1.0974914 -2.98329,18.3645414 -9.80402,30.4491534 -24.19212,42.8622234 -15.78653,13.619592 -31.24986,17.876874 -54.78174,15.08224 -28.63569,-3.400762 -45.45694,3.63545 -74.84686,31.307935 -25.088,23.621962 -31.66159,25.783052 -58.2378,19.145792 -24.24836,-6.05586 -35.60123,-4.26372 -57.258258,9.03877 -6.828559,4.19433 -11.21314,5.34094 -14.137324,3.69706 z M 391.49459,103.92601 c -5.3481,-2.66864 -5.80401,-6.309644 -1.78072,-14.221956 1.48746,-2.925259 3.63863,-8.201529 4.78036,-11.725028 6.94534,-21.433874 26.50551,-31.580188 39.537,-20.50875 8.97259,7.62306 6.64946,18.726123 -5.73221,27.396136 -1.75985,1.232294 -5.88842,4.592454 -9.1746,7.467044 -13.52086,11.827314 -20.92973,14.935804 -27.62983,11.592554 z m -371.717283,-0.8887 c -8.511504,-1.02552 -21.1353475,-6.485319 -21.1353475,-9.141022 0,-1.00845 0.50841396,-1.207225 1.2696628,-0.496373 C 1.5022,94.885154 14.385838,95.360582 20.29666,94.152128 45.594315,88.980127 64.82703,70.783373 69.337225,47.75309 71.462778,36.899506 71.938827,35.199006 73.922771,31.373191 78.025799,23.460947 83.742654,19.563383 98.599433,14.549438 108.56354,11.1867 115.34479,7.2959139 120.36699,2.0601826 l 2.70334,-2.81828952 53.10773,0.12231937 53.10773,0.12231938 -2.84905,3.60430657 C 216.88485,15.174896 202.41373,26.244929 190.95462,30.233768 177.21019,35.018118 169.90987,34.940611 145.02661,29.746156 113.06435,23.073941 99.062854,26.87512 86.45664,45.646936 83.356816,50.262876 83.108509,50.720481 75.38803,66.046067 69.07457,78.578647 64.749462,84.95424 59.620315,89.289095 45.363865,101.33781 35.091398,104.88242 19.777307,103.03731 Z"
             id="path63" /><path
             style="display:inline;fill:#171717;stroke:#171717;stroke-width:1.86623;stroke-dasharray:none"
             d="m -1.3503563,265.96494 c 0.00392,-12.04645 0.1986924,-20.22929 0.49022278,-20.6647 0.26545898,-0.39647 0.48608655,-0.51606 0.49028165,-0.26574 0.003914,0.25028 0.69191428,-0.44301 1.52826077,-1.54066 3.4333236,-4.50609 8.417098,-7.31454 20.6362251,-11.62887 18.580458,-6.56045 23.945427,-9.16073 33.962002,-16.4608 21.589717,-15.73449 31.796163,-7.41303 25.174295,20.52488 -0.972232,4.10187 -1.28317,6.87388 -1.387769,12.37184 l -0.13487,7.08555 -2.576098,2.72056 c -4.550166,4.80528 -7.499736,9.51964 -10.46734,16.7301 -0.824643,2.00362 -2.286235,5.15112 -3.248,6.99444 -0.961764,1.84334 -1.802423,3.5148 -1.86815,3.71437 -0.06567,0.19958 -14.179098,0.36287 -31.363084,0.36287 H -1.3579817 Z m 84.6365043,19.75709 c -1.57e-4,-2.65021 12.13264,-15.4339 17.973722,-18.93795 9.30005,-5.57906 15.1547,-7.31847 40.7793,-12.11554 9.5519,-1.78815 15.07596,-3.29413 22.31009,-6.08224 17.85271,-6.88056 20.80218,-7.29234 28.46353,-3.97379 3.55854,1.54136 7.97941,5.74814 7.97941,7.59296 0,1.67288 1.32239,2.81063 2.92456,2.51625 0.71921,-0.13226 3.21215,-0.37821 5.53985,-0.54677 29.98545,-2.17163 68.01545,-24.09816 87.34755,-50.36103 3.94704,-5.36208 17.89088,-18.98635 22.93884,-22.41311 20.08888,-13.63711 28.80506,-15.66161 58.00618,-13.47301 38.59353,2.89253 49.28837,-1.77627 63.84933,-27.8733 15.76403,-28.25334 28.40165,-36.16501 58.51198,-36.631 l 8.58954,-0.133 -6.5e-4,8.2119 -6.3e-4,8.21188 -8.33995,-0.036 c -19.23108,-0.0831 -35.39357,10.83328 -44.21816,29.86561 -2.57166,5.54636 -2.63979,5.62527 -8.69816,10.07003 -2.59404,1.90314 -6.62093,4.87967 -8.94865,6.61454 -28.1351,20.96945 -35.55873,24.13767 -64.85634,27.6791 -31.75621,3.83861 -38.20496,6.91204 -53.38236,25.44163 -9.93858,12.13368 -12.8011,14.72479 -23.47078,21.2452 -15.94047,9.74146 -25.99611,12.97459 -46.74831,15.0307 -23.53245,2.33156 -32.59029,4.97584 -42.82001,12.50044 -5.8341,4.29138 -14.34463,13.45976 -15.72877,16.94455 l -0.43043,1.08367 -53.78532,-0.12263 c -29.58194,-0.0673 -53.785343,-0.20655 -53.785362,-0.30924 z m 195.987482,-0.0839 c 2.87332,-0.96905 4.38609,-1.51396 8.90125,-3.20643 4.23793,-1.58855 11.88741,-3.87894 24.14847,-7.23046 13.45742,-3.67856 23.78908,-11.89346 35.67953,-28.36954 7.79662,-10.80339 12.62285,-14.86603 20.36948,-17.14666 10.53725,-3.10216 17.41808,-2.79336 35.06799,1.57383 22.90081,5.66642 39.5343,-2.08295 66.35289,-30.91315 11.78666,-12.67076 21.90643,-17.29852 34.14211,-15.61319 1.73481,0.23894 3.4375,0.32951 3.78375,0.20127 0.54371,-0.20139 0.78925,17.97582 0.27337,20.23848 -0.0601,0.26431 -0.0692,0.5887 -0.02,0.72086 0.54207,1.45517 0.35856,15.00557 -0.19348,14.28473 -1.18102,-1.54224 -8.41615,-3.71729 -13.4208,-4.03459 -13.99273,-0.88716 -26.51474,5.98901 -39.83497,21.87436 -15.33767,18.2913 -23.98397,22.30644 -49.83807,23.14353 -25.87498,0.83777 -36.86691,5.75995 -45.54128,20.39338 -0.88232,1.48845 -1.66059,3.07705 -1.72951,3.53023 -0.11703,0.77006 -2.70727,0.82542 -39.60035,0.84627 -21.71129,0.0116 -39.05445,-0.11952 -38.54033,-0.29292 z M 95.594937,247.38645 c -0.943767,-4.73237 1.383026,-17.5098 4.155546,-22.81981 6.930337,-13.27323 17.106367,-21.68484 43.782407,-36.1911 32.44078,-17.64104 25.01539,-28.01415 -17.72788,-24.76544 -25.58317,1.94447 -39.057526,8.89083 -55.857947,28.79617 -19.44517,23.03886 -39.731096,31.59526 -67.9442313,28.65813 l -3.3608722,-0.34988 v -10.11828 -10.11829 l 4.2095095,-4.42621 c 18.563599,-19.51923 36.677671,-33.38065 53.547701,-40.97623 14.032725,-6.31815 12.876011,-5.86974 19.418373,-7.52748 10.491959,-2.65853 25.175537,-2.67115 38.384857,-0.0329 30.40857,6.07312 47.22666,6.06317 63.53985,-0.0377 14.57277,-5.44992 21.65251,-11.31333 45.14449,-37.38842 18.1602,-20.157033 27.30067,-24.755788 56.48274,-28.417593 43.66391,-5.479 73.36648,-21.34107 83.75199,-44.726098 1.40819,-3.170782 1.52786,-2.95072 4.13234,7.599679 4.39743,17.813276 4.32176,23.209521 -0.48271,34.432291 -4.50222,10.516723 -10.52374,15.267312 -33.7846,26.653891 -15.57394,7.62371 -20.56342,13.89049 -21.66793,27.21483 -0.20816,2.51099 -0.85142,6.27605 -1.42951,8.36678 -0.57808,2.09072 -1.05103,4.43791 -1.05103,5.21597 0,1.43101 -1.28695,5.9633 -4.05778,14.29055 -9.58341,28.80129 -36.16989,40.42689 -69.81647,30.529 -22.10412,-6.50239 -35.81848,-5.41924 -52.59414,4.15384 -2.60156,1.48459 -5.3504,3.25638 -6.10852,3.93728 l -1.37839,1.23803 1.00497,1.80979 c 2.42235,4.36228 0.7503,7.32458 -9.70265,17.18979 -8.31669,7.84905 -9.76171,9.46418 -13.76996,15.391 -5.12848,7.58321 -14.5994,11.38107 -22.86488,9.16889 -4.31693,-1.15539 -5.17899,-1.1163 -12.70387,0.57601 -3.58676,0.80663 -9.18822,1.92043 -12.4477,2.47513 -3.25947,0.55468 -6.512467,1.13342 -7.228865,1.28613 -1.128582,0.24053 -1.338919,0.0954 -1.574838,-1.08769 z M -1.1509386,134.32767 c -0.1138913,-0.11012 -0.2071019,-9.04119 -0.2071019,-19.8468 V 94.834335 l 2.11610478,1.400173 C 10.912446,102.95335 28.512381,105.53923 38.948764,101.8457 55.406257,96.021239 65.070809,86.526341 75.38803,66.046067 c 7.720479,-15.325585 7.968786,-15.78319 11.06861,-20.399129 12.606214,-18.771816 26.60771,-22.572996 58.56997,-15.90078 24.88326,5.194455 32.18358,5.271961 45.92801,0.487613 11.57014,-4.027488 27.11081,-16.016685 35.96194,-27.7436484 l 2.4484,-3.24387598 29.65391,0.0153254 c 24.0237,0.0122979 29.49662,0.13075781 28.82545,0.62344294 -0.45567,0.33448717 -2.16547,2.32799984 -3.79958,4.43002764 -12.4831,16.0575264 -29.66135,24.9069464 -53.12918,27.3696584 -27.09089,2.842917 -35.81069,6.919894 -56.51244,26.422601 -9.28895,8.750953 -17.68491,15.470876 -21.95896,17.575432 -6.08402,2.995774 -14.98223,5.84522 -23.23482,7.440423 l -8.59761,1.661879 -15.05297,-0.11541 c -16.208203,-0.124307 -17.421274,0.0037 -29.454077,3.098835 -8.007385,2.059922 -21.451697,12.176255 -33.235664,25.008569 -11.508121,12.53195 -17.60907,16.82162 -28.653587,20.14676 -3.051347,0.91866 -14.76166851,1.98854 -15.3663706,1.40391 z M 484.76621,79.066487 c -6.70207,-1.851082 -14.1624,-7.761105 -19.16584,-15.183005 -1.24728,-1.850211 -3.28189,-4.877828 -4.52133,-6.728038 C 453.46547,45.790099 441.93573,40.679567 419.87127,38.890194 389.68089,36.441826 380.91109,27.599441 385.3369,4.0699744 l 0.90733,-4.82372778 h 59.91804 c 53.12358,0 60.00446,0.0834004 60.67998,0.73541483 0.80565,0.77759929 1.24805,3.58975315 0.56471,3.58975315 -0.22106,0 -0.40194,0.2094716 -0.40194,0.465491 0,0.2560211 0.33608,0.3410128 0.74685,0.1888618 0.41078,-0.1521377 0.74688,-0.055248 0.74688,0.2153219 0,0.2705691 -0.28008,0.6010205 -0.62239,0.7343382 -0.42378,0.1650412 -0.43763,0.254502 -0.0435,0.2803355 0.56491,0.037027 0.40173,2.8705304 -0.19584,3.4019584 -0.14859,0.132158 -0.15759,-0.3595849 -0.02,-1.0927613 0.13761,-0.7331766 0.0562,-1.44878 -0.18094,-1.5902278 -0.93743,-0.5592048 -0.58684,4.0430637 0.37902,4.9753017 0.46594,0.44972 0.55344,0.885953 0.24928,1.242764 -0.25775,0.302394 -0.51225,1.306708 -0.56554,2.231814 -0.14269,2.478581 -0.0504,2.972604 0.49514,2.647209 0.53107,-0.316798 0.38748,2.136374 -0.17662,3.017344 -0.18191,0.284073 -0.12638,0.638418 0.12353,0.787431 0.26984,0.160975 0.24311,1.003446 -0.0658,2.075648 -0.64711,2.245807 -0.55717,6.099589 0.17309,7.416663 0.41958,0.756692 0.40835,0.907338 -0.0473,0.635515 -0.44185,-0.263559 -0.4711,-0.122321 -0.11257,0.542725 0.54057,1.002539 0.5378,6.175315 -0.004,6.697864 -0.19074,0.184074 -0.12273,0.738769 0.15113,1.232649 0.35132,0.633578 0.33027,0.89796 -0.0715,0.89796 -0.35493,0 -0.4546,0.441462 -0.26466,1.171984 0.16761,0.64459 0.0798,1.306129 -0.19505,1.470083 -0.82211,0.490405 -0.56519,1.680251 0.37161,1.721041 0.47923,0.02088 0.64346,0.130229 0.36493,0.243022 -0.27852,0.112806 -0.47035,0.945162 -0.42626,1.849705 0.0536,1.10436 -0.11608,1.571986 -0.51688,1.423502 -0.73832,-0.273455 -0.7414,3.552706 -0.004,4.046556 0.87333,0.584297 0.53385,2.257152 -0.44234,2.179805 -0.65189,-0.05165 -0.85737,0.212797 -0.74686,0.96113 0.0979,0.662966 0.50881,1.032402 1.14829,1.032402 1.0832,0 1.31317,3.662391 0.25142,4.003978 -0.27523,0.08855 -0.50038,0.480121 -0.50038,0.870179 0,0.390043 0.18583,0.598297 0.41299,0.462809 0.57861,-0.345143 0.3857,1.414685 -0.24026,2.191986 -0.8901,1.105264 -1.1469,2.279 -0.57347,2.621078 0.36899,0.2201 0.26286,0.532813 -0.32055,0.944555 -0.99794,0.704307 -0.63,1.640632 0.6447,1.640632 1.23758,0 1.23554,1.769024 -10e-4,2.081472 -0.79186,0.199873 -0.90185,0.432592 -0.51763,1.095256 0.34626,0.597198 0.28688,1.035467 -0.20461,1.509835 -1.03136,0.995469 -0.83858,1.954594 0.4278,2.128187 0.78186,0.107274 1.15395,0.516523 1.23168,1.355029 0.0613,0.660772 -0.004,0.956268 -0.14663,0.65661 -0.18249,-0.385235 -1.60055,-0.212116 -4.84151,0.591086 -5.74564,1.423919 -13.45043,1.525578 -18.1089,0.238926 z"
             id="path64" /></g></g><path
         id="path65"
         style="display:inline;fill:#e6e6e6;stroke-width:4;stroke-linecap:square"
         d="m 273.58175,101.11104 c -7.24233,0.37347 -16.32994,14.26445 -23.63871,14.32097 -6.68386,-0.40323 -5.03246,-11.93046 -10.33552,-11.16 -8.86089,1.97732 -3.66797,17.62704 -5.86957,20.08665 -2.02559,2.26299 -8.03232,-0.98474 -9.91759,2.60396 -2.7622,5.25804 7.2575,8.91484 8.42307,13.81135 0.93603,3.93218 -3.78409,7.07629 -2.03547,10.82916 0.3485,0.74792 0.99215,1.37717 2.04539,1.79862 9.32678,1.31289 13.98503,-4.97195 17.57432,-12.91508 2.38145,-5.59082 12.15737,-27.98072 17.31376,-24.98589 3.66014,2.12571 -1.89768,7.11176 0.44316,9.24756 1.81799,1.65872 6.30068,-2.689 8.02118,-0.1574 1.31944,1.94157 -4.57228,5.3287 -4.45223,9.8672 0.0369,1.39232 2.34347,2.52452 2.50002,3.78599 0.54589,4.3988 -9.91043,3.28901 -9.56534,8.92892 6.33248,-5.69145 18.59258,-2.05374 18.93664,-7.14788 0.26408,-3.9099 -5.49739,-4.2726 -6.11484,-7.15552 -0.92833,-4.33445 9.56849,-8.61115 7.42292,-13.0702 -2.22053,-4.61483 -8.38505,-0.16732 -9.70595,-1.91553 -2.2524,-2.98106 7.25691,-12.46136 1.93537,-16.02561 -0.94872,-0.5781 -1.946,-0.80061 -2.98061,-0.74727 z m -13.14806,28.16977 a 5.1749593,5.174985 0 0 0 -5.17503,5.17504 5.1749593,5.174985 0 0 0 5.17503,5.17506 5.1749593,5.174985 0 0 0 5.17426,-5.17506 5.1749593,5.174985 0 0 0 -5.17426,-5.17504 z m -18.40333,2.23337 a 5.1749593,5.174985 0 0 1 5.17503,5.17507 5.1749593,5.174985 0 0 1 -5.17503,5.17504 5.1749593,5.174985 0 0 1 -5.17501,-5.17504 5.1749593,5.174985 0 0 1 5.17501,-5.17507 z m 53.65663,7.10739 c -2.05796,0.0939 -4.27139,2.41361 -5.7649,3.76993 -1.54295,1.64376 -5.85003,2.05021 -7.14939,3.78596 -0.51324,0.68563 -0.99158,1.91922 0.31787,2.61159 1.22247,0.6464 2.29107,0.5142 2.94852,1.2355 3.79105,4.15915 -5.93256,15.89108 0.61584,18.23685 4.49222,1.6092 5.89997,-4.40965 5.14064,-8.06781 -0.77738,-3.74518 -1.98483,-10.06512 -0.0542,-11.81101 2.57528,-2.32891 8.87987,-3.51995 6.57328,-8.20994 -0.78879,-1.17674 -1.69219,-1.59374 -2.62761,-1.55107 z m -18.32235,7.69649 c -1.55327,0.008 -3.00702,0.66136 -4.00829,1.61448 -2.59178,2.46707 -2.67167,8.64671 0.75489,9.21087 1.94303,0.31993 3.38584,2.32613 2.82781,3.543 -1.39177,3.03502 -2.87279,0.34787 -4.56224,1.30198 -1.53334,0.86595 -1.38188,3.54584 1.38831,4.71966 3.15151,1.33538 9.17489,-2.0282 8.43073,-6.56412 -1.03018,-6.27936 -8.22553,-5.6487 -6.5641,-8.41319 1.1127,-1.85147 4.54826,0.9606 5.66708,-1.24315 1.14188,-2.74866 -1.34541,-4.1825 -3.93419,-4.16953 z m -55.9595,1.59003 c -1.81079,-0.0958 -3.70151,0.8021 -4.39261,2.7323 -1.23747,3.94307 -0.85219,8.15478 -2.79498,12.04635 -1.99678,3.99976 -4.59799,7.83221 -5.01303,12.4811 -0.43899,4.91719 7.51693,6.27317 7.09207,0.84582 -0.19688,-2.51528 0.92375,-3.68037 2.30137,-3.62551 4.58013,0.18225 0.95469,15.18228 24.11269,11.74788 18.98342,-2.81532 20.15042,-17.2958 21.50823,-17.34474 3.14215,-0.11326 5.49996,18.40856 15.80625,14.81762 3.53555,-2.03642 3.58742,-8.11092 -0.75567,-9.21241 -5.347,-2.09469 -11.99944,-5.76053 -12.59641,-11.9936 -0.14504,-1.51511 0.44823,-3.3946 1.45403,-4.97869 1.51004,-2.37821 3.51652,-4.42446 1.88494,-6.23634 -2.413,-2.67968 -5.33401,5.55704 -6.36697,5.73663 -1.60477,0.279 -3.54064,-7.8494 -6.13926,-3.32753 -0.92729,1.61358 0.38634,3.28301 1.55257,5.05127 1.12081,1.69941 2.07944,3.50839 2.05993,4.56304 -0.0578,3.12911 -3.06352,14.81181 -19.66294,17.4206 -17.17653,2.63334 -16.52543,-7.37861 -16.73874,-11.2874 -0.72211,-5.44325 1.78839,-10.8571 0.60286,-16.20442 -0.37245,-2.04647 -2.10352,-3.13618 -3.91433,-3.23201 z m 30.04388,4.8381 c -3.75038,0.14843 -7.26544,2.53998 -6.45102,6.9286 0.77561,4.17961 -1.37297,8.63599 0.62271,12.34993 1.39862,2.60277 6.8089,0.21142 8.95257,-1.11046 2.48818,-2.28622 3.40278,-7.34774 0.21166,-9.3293 1.63823,-2.91017 2.76857,-9.07974 -3.33592,-8.83883 z m -10.2683,3.07003 c -2.32813,-0.1202 -3.96098,4.51956 -4.81209,6.84836 -0.29844,1.4613 -0.68128,1.98688 -1.0949,1.9545 -0.95639,-0.0749 -2.07564,-3.13149 -2.68647,-4.49655 -0.50998,-1.89857 -1.52624,-2.50245 -2.53746,-2.32125 -1.75533,0.31452 -3.01912,2.85416 -2.54512,5.36454 0.78721,4.16927 -1.42174,9.28178 1.11326,12.86771 0.5702,0.8066 1.40551,0.81873 1.85897,0.80839 2.38711,-0.0574 0.60367,-7.09878 1.46241,-8.75625 0.54379,3.30177 4.74071,6.11654 5.65334,1.26224 1.65129,-4.77908 0.94135,1.61912 1.12242,3.30842 0.16382,1.52832 0.8682,2.18614 1.54036,2.2991 1.72569,0.29005 3.96011,-3.15668 3.29695,-5.76415 -1.09887,-4.32072 0.29986,-12.25628 -1.62746,-13.17717 -0.25565,-0.12213 -0.50336,-0.18547 -0.74421,-0.19789 z m 9.63794,1.56253 c 1.13914,0.0547 2.04067,1.00746 0.38738,2.82401 -0.46351,0.50927 -1.52535,1.23143 -1.98962,0.6655 -1.85904,-2.26613 0.13766,-3.55983 1.60224,-3.48951 z m -31.04326,2.96154 c 2.00278,-0.0133 2.22045,7.88204 -1.02768,7.17996 -2.37693,-0.51375 -0.36919,-7.00336 0.9314,-7.17309 0.0327,-0.005 0.0645,-0.008 0.0962,-0.008 z m 31.02951,4.0809 c 1.42788,0.0483 2.7,1.33334 1.05672,3.4429 -1.08804,1.39674 -2.49315,1.20715 -2.87824,-0.70218 -0.40134,-1.98993 0.71096,-2.77833 1.82152,-2.74072 z" /></g></g></svg>
