<?xml version="1.0" encoding="UTF-8" standalone="no"?>
<!-- Created with Inkscape (http://www.inkscape.org/) -->

<svg
   width="60.617062mm"
   height="56.50301mm"
   viewBox="0 0 60.617062 56.50301"
   version="1.1"
   id="svg1"
   xml:space="preserve"
   xmlns="http://www.w3.org/2000/svg"
   xmlns:svg="http://www.w3.org/2000/svg"><defs
     id="defs1" /><g
     id="layer1"
     transform="translate(-113.23859,-117.19335)"><g
       id="g20"
       style="display:inline"><path
         id="path3"
         style="display:inline;stroke-width:4;stroke-linecap:square"
         d="m 156.79095,117.19853 c -4.89824,0.25259 -11.04449,9.64748 -15.98766,9.68571 -4.52052,-0.27272 -3.40363,-8.06894 -6.99027,-7.54785 -5.99291,1.33732 -2.48077,11.9217 -3.96978,13.58521 -1.36997,1.53053 -5.43253,-0.66601 -6.7076,1.76114 -1.86817,3.55617 4.90849,6.02938 5.69681,9.34103 0.63306,2.65946 -2.55931,4.78592 -1.37666,7.3241 0.2357,0.50584 0.67102,0.93142 1.38337,1.21646 6.30801,0.88795 9.45855,-3.36269 11.8861,-8.73487 1.61065,-3.78124 8.22244,-18.92421 11.70988,-16.89871 2.47548,1.43768 -1.28347,4.8099 0.29972,6.2544 1.22957,1.12185 4.26137,-1.81865 5.425,-0.10645 0.89239,1.31314 -3.09239,3.60396 -3.01119,6.67349 0.0249,0.94167 1.58497,1.7074 1.69085,2.56057 0.3692,2.97505 -6.70276,2.22446 -6.46937,6.03891 4.28287,-3.84931 12.57479,-1.38901 12.80749,-4.83433 0.17861,-2.64438 -3.71806,-2.88969 -4.13567,-4.8395 -0.62786,-2.93152 6.47149,-5.82398 5.02037,-8.83977 -1.50182,-3.12115 -5.67109,-0.11317 -6.56446,-1.29553 -1.52337,-2.01618 4.90809,-8.428 1.30896,-10.83861 -0.64166,-0.39099 -1.31615,-0.54148 -2.01589,-0.5054 z m -8.89248,19.05207 a 3.5,3.5 0 0 0 -3.50005,3.50004 3.5,3.5 0 0 0 3.50005,3.50005 3.5,3.5 0 0 0 3.49952,-3.50005 3.5,3.5 0 0 0 -3.49952,-3.50004 z m -12.44679,1.5105 a 3.5,3.5 0 0 1 3.50005,3.50005 3.5,3.5 0 0 1 -3.50005,3.50004 3.5,3.5 0 0 1 -3.50004,-3.50004 3.5,3.5 0 0 1 3.50004,-3.50005 z m 36.28978,4.80694 c -1.39186,0.0635 -2.88888,1.6324 -3.89899,2.54972 -1.04355,1.11172 -3.95657,1.38662 -4.83537,2.56056 -0.34712,0.46371 -0.67064,1.29802 0.21498,1.7663 0.8268,0.43718 1.54953,0.34777 1.99419,0.83561 2.56401,2.81296 -4.0124,10.74762 0.41651,12.33413 3.03824,1.08835 3.99035,-2.98238 3.47679,-5.45651 -0.52577,-2.53297 -1.34241,-6.80734 -0.0367,-7.98814 1.74175,-1.57512 6.00575,-2.38065 4.44573,-5.55264 -0.53349,-0.79586 -1.14449,-1.07789 -1.77715,-1.04903 z m -12.39201,5.20537 c -1.05053,0.005 -2.03375,0.4473 -2.71095,1.09192 -1.75291,1.66856 -1.80694,5.84804 0.51056,6.2296 1.31414,0.21637 2.28996,1.57322 1.91255,2.39623 -0.94131,2.05268 -1.94297,0.23528 -3.0856,0.88057 -1.03706,0.58567 -0.93462,2.39816 0.93896,3.19205 2.13147,0.90316 6.20528,-1.37173 5.70198,-4.43952 -0.69674,-4.24691 -5.5632,-3.82038 -4.43952,-5.69009 0.75256,-1.2522 3.07614,0.64968 3.83284,-0.84078 0.77229,-1.859 -0.90995,-2.82875 -2.66082,-2.81998 z m -37.84731,1.07539 c -1.2247,-0.0648 -2.50346,0.54248 -2.97087,1.84794 -0.83694,2.66682 -0.57636,5.51532 -1.89033,8.14731 -1.3505,2.70516 -3.10978,5.29716 -3.39049,8.44135 -0.29691,3.32564 5.08395,4.24273 4.79661,0.57205 -0.13316,-1.70116 0.62475,-2.48914 1.55649,-2.45204 3.0977,0.12326 0.64569,10.26824 16.30823,7.94544 12.83913,-1.90408 13.62841,-11.69767 14.54674,-11.73077 2.12514,-0.0766 3.71981,12.45027 10.6903,10.02161 2.39121,-1.3773 2.4263,-5.48566 -0.51108,-6.23063 -3.61636,-1.4167 -8.11563,-3.89603 -8.51938,-8.11165 -0.0981,-1.02471 0.30315,-2.29586 0.98341,-3.36723 1.02129,-1.60846 2.37834,-2.9924 1.27485,-4.21783 -1.632,-1.81235 -3.60758,3.7584 -4.30619,3.87986 -1.08537,0.1887 -2.39466,-5.30879 -4.1522,-2.25051 -0.62716,1.09131 0.2613,2.2204 1.05006,3.41633 0.75804,1.14936 1.4064,2.37283 1.3932,3.08612 -0.0391,2.11631 -2.07196,10.01768 -13.29871,11.78208 -11.61707,1.78101 -11.17671,-4.99038 -11.32098,-7.63401 -0.48839,-3.68144 1.20955,-7.34298 0.40773,-10.95954 -0.25189,-1.38409 -1.42268,-2.1211 -2.64739,-2.18591 z m 20.31969,3.27215 c -2.5365,0.10039 -4.91386,1.71787 -4.36304,4.68602 0.52458,2.8268 -0.92859,5.84079 0.42117,8.35264 0.94593,1.76034 4.60508,0.14299 6.05492,-0.75104 1.68284,-1.54624 2.30141,-4.9695 0.14315,-6.30969 1.10799,-1.96824 1.87248,-6.1409 -2.2562,-5.97797 z m -6.94479,2.07636 c -1.5746,-0.0813 -2.67895,3.05671 -3.25458,4.63175 -0.20185,0.98832 -0.46078,1.34379 -0.74053,1.32189 -0.64683,-0.0507 -1.40382,-2.11792 -1.81694,-3.04116 -0.34491,-1.28406 -1.03225,-1.69248 -1.71617,-1.56993 -1.18719,0.21272 -2.04193,1.93036 -1.72135,3.6282 0.53242,2.81981 -0.96157,6.27756 0.75293,8.70283 0.38565,0.54553 0.9506,0.55374 1.25729,0.54674 1.61448,-0.0388 0.40828,-4.80112 0.98908,-5.92212 0.36778,2.23309 3.2063,4.1368 3.82354,0.85369 1.11682,-3.23224 0.63666,1.09506 0.75913,2.23759 0.1108,1.03365 0.58719,1.47855 1.0418,1.55495 1.16714,0.19617 2.67835,-2.13496 2.22984,-3.89847 -0.74321,-2.92224 0.2028,-8.28929 -1.10071,-8.91212 -0.1729,-0.0826 -0.34044,-0.12544 -0.50333,-0.13384 z m 6.51846,1.05678 c 0.77044,0.037 1.38017,0.68138 0.262,1.90996 -0.31349,0.34444 -1.03165,0.83286 -1.34565,0.4501 -1.25733,-1.53265 0.0931,-2.40762 1.08365,-2.36006 z m -20.99561,2.00298 c 1.35455,-0.009 1.50177,5.33087 -0.69505,4.85603 -1.6076,-0.34747 -0.2497,-4.73659 0.62993,-4.85138 0.0221,-0.003 0.0436,-0.005 0.0651,-0.005 z m 20.98631,2.76004 c 0.96572,0.0327 1.8261,0.90178 0.71469,2.32854 -0.73587,0.94466 -1.6862,0.81643 -1.94665,-0.47491 -0.27144,-1.34585 0.48085,-1.87907 1.23196,-1.85363 z" /></g></g></svg>
