<?xml version="1.0" encoding="UTF-8" standalone="no"?>
<!-- Created with Inkscape (http://www.inkscape.org/) -->

<svg
   width="41.447163mm"
   height="35.488789mm"
   viewBox="0 0 41.447163 35.488789"
   version="1.1"
   id="svg1"
   xml:space="preserve"
   xmlns="http://www.w3.org/2000/svg"
   xmlns:svg="http://www.w3.org/2000/svg"><defs
     id="defs1" /><g
     id="layer1"
     transform="translate(-122.81127,-117.19335)"><g
       id="g6"
       style="display:inline"><path
         d="m 156.79095,117.19853 c -4.89824,0.25259 -11.04449,9.64748 -15.98766,9.68571 -4.52052,-0.27272 -3.40363,-8.06894 -6.99027,-7.54785 -5.99291,1.33732 -2.48077,11.9217 -3.96978,13.58521 -1.36997,1.53053 -5.43253,-0.66601 -6.7076,1.76114 -1.86817,3.55617 4.90849,6.02938 5.69681,9.34103 0.63306,2.65946 -2.55931,4.78592 -1.37666,7.3241 0.2357,0.50584 0.67102,0.93142 1.38337,1.21646 6.30801,0.88795 9.45855,-3.36269 11.8861,-8.73487 1.61065,-3.78124 8.22244,-18.92421 11.70988,-16.89871 2.47548,1.43768 -1.28347,4.8099 0.29972,6.2544 1.22957,1.12185 4.26137,-1.81865 5.425,-0.10645 0.89239,1.31314 -3.09239,3.60396 -3.01119,6.67349 0.0249,0.94167 1.58497,1.7074 1.69085,2.56057 0.3692,2.97505 -6.70276,2.22446 -6.46937,6.03891 4.28287,-3.84931 12.57479,-1.38901 12.80749,-4.83433 0.17861,-2.64438 -3.71806,-2.88969 -4.13567,-4.8395 -0.62786,-2.93152 6.47149,-5.82398 5.02037,-8.83977 -1.50182,-3.12115 -5.67109,-0.11317 -6.56446,-1.29553 -1.52337,-2.01618 4.90809,-8.428 1.30896,-10.83861 -0.64166,-0.39099 -1.31615,-0.54148 -2.01589,-0.5054 z m -8.89248,19.05207 a 3.5,3.5 0 0 0 -3.50005,3.50004 3.5,3.5 0 0 0 3.50005,3.50005 3.5,3.5 0 0 0 3.49952,-3.50005 3.5,3.5 0 0 0 -3.49952,-3.50004 z m -12.44679,1.5105 a 3.5,3.5 0 0 1 3.50005,3.50005 3.5,3.5 0 0 1 -3.50005,3.50004 3.5,3.5 0 0 1 -3.50004,-3.50004 3.5,3.5 0 0 1 3.50004,-3.50005 z"
         style="display:inline;stroke-width:4;stroke-linecap:square"
         id="path6" /></g></g></svg>
